<?xml version="1.0" standalone="no"?>
<!DOCTYPE svg PUBLIC "-//W3C//DTD SVG 1.1//EN" "http://www.w3.org/Graphics/SVG/1.1/DTD/svg11.dtd" >
<svg>
<font id="Inkburrow" horiz-adv-x="30.76172" >
<font-face units-per-em="100" ascent="80" descent="-20" />
<glyph unicode=" " horiz-adv-x="30.76172" d="" />
<glyph unicode="!" horiz-adv-x="18.06641" d="M8.20312 4.19922 Q5.56641 0.39062 3.41797 0.39062 Q3.32031 0.39062 3.22266 0.39062 Q-0.09766 0.68359 -0.09766 4.00391 Q-0.09766 5.27344 0.68359 6.83594 Q1.85547 9.27734 6.15234 9.76562 Q6.34766 8.10547 6.64062 7.61719 Q6.93359 7.12891 8.20312 6.15234 Q8.20312 5.46875 8.20312 4.19922 zM18.84766 67.08984 Q17.28516 60.25391 12.59766 39.74609 Q10.83984 31.83594 9.27734 26.36719 Q6.64062 15.82031 5.37109 13.86719 Q3.51562 13.86719 2.05078 14.64844 Q3.32031 15.42969 7.91016 40.72266 Q8.88672 45.80078 10.74219 55.85938 Q12.89062 67.28516 14.16016 69.92188 Q17.08984 70.21484 18.55469 70.41016 Q18.84766 69.92188 18.84766 69.53125 Q18.94531 69.33594 18.94531 68.75 Q18.94531 68.06641 18.84766 67.08984 z" />
<glyph unicode="&#x22;" horiz-adv-x="26.07422" d="M27.92969 62.40234 Q26.66016 57.91016 23.04688 52.92969 Q20.99609 50 16.69922 44.23828 Q14.94141 44.23828 13.37891 45.01953 Q14.94141 45.99609 18.55469 54.29688 Q20.01953 57.91016 23.14453 65.23438 Q25.87891 65.42969 27.44141 65.625 Q27.92969 65.03906 27.92969 62.40234 zM12.01172 61.03516 Q10.15625 56.93359 0.87891 41.99219 Q0.58594 41.99219 -0.19531 42.28516 Q-0.09766 46.77734 2.83203 54.39453 Q5.76172 61.91406 8.78906 65.13672 Q9.76562 65.13672 10.35156 65.03906 Q12.01172 63.37891 12.01172 61.03516 z" />
<glyph unicode="#" horiz-adv-x="69.53125" d="M67.77344 40.03906 Q65.82031 38.18359 54.19922 37.89062 Q50.19531 37.89062 39.94141 37.69531 Q38.08594 34.47266 37.01172 29.00391 Q44.72656 28.80859 60.25391 28.32031 Q61.91406 28.22266 63.96484 27.83203 Q63.96484 27.44141 63.96484 26.66016 Q60.15625 24.12109 52.24609 24.12109 Q51.17188 24.12109 49.31641 24.31641 Q39.94141 24.80469 35.05859 24.90234 Q33.49609 19.72656 30.37109 9.76562 Q26.95312 -0.39062 23.53516 -3.71094 Q22.85156 -3.22266 22.65625 -2.83203 Q23.53516 -0.39062 27.73438 11.32812 Q31.44531 22.07031 31.15234 25.09766 Q28.125 25.19531 22.26562 25.58594 Q19.23828 25.78125 13.37891 26.17188 Q12.69531 25.58594 11.32812 24.31641 Q10.74219 23.63281 9.47266 22.26562 Q8.20312 22.26562 7.61719 23.04688 Q7.91016 24.80469 7.91016 25.09766 Q8.00781 25.58594 7.91016 26.26953 Q3.51562 26.66016 -5.56641 28.02734 Q-6.05469 28.90625 -6.05469 29.58984 Q-6.05469 29.78516 -6.05469 29.88281 Q-6.05469 30.07812 -6.05469 30.27344 Q-5.85938 31.05469 -5.07812 33.30078 Q-3.80859 33.49609 -2.44141 33.49609 Q0 33.49609 2.92969 32.91016 Q7.32422 31.93359 11.81641 31.64062 Q12.59766 33.88672 14.16016 38.37891 Q10.74219 38.47656 3.80859 38.67188 Q-4.00391 39.0625 -5.27344 39.94141 Q-5.27344 40.52734 -5.27344 41.99219 Q-1.66016 45.3125 2.24609 45.3125 Q3.41797 45.3125 4.29688 45.11719 Q9.57031 44.04297 16.30859 43.65234 Q18.84766 45.99609 19.62891 50.39062 Q20.50781 55.85938 20.89844 56.64062 Q22.26562 59.57031 26.75781 60.05859 Q27.92969 58.78906 27.92969 56.93359 Q27.92969 54.6875 26.17188 51.66016 Q22.85156 45.89844 22.55859 43.26172 Q29.78516 43.06641 38.96484 43.16406 Q43.84766 53.71094 49.12109 63.57422 Q51.85547 68.55469 55.07812 71.48438 Q56.05469 72.26562 56.64062 72.26562 Q58.00781 72.26562 58.49609 68.65234 Q52.34375 60.83984 49.60938 56.64062 Q44.92188 49.60938 42.77344 43.35938 Q49.90234 42.96875 64.16016 42.28516 Q67.1875 42.08984 67.77344 41.79688 Q67.77344 41.21094 67.77344 40.03906 zM36.23047 35.74219 Q36.23047 36.13281 36.23047 37.59766 Q26.75781 37.69531 20.21484 38.08594 Q19.43359 36.91406 18.06641 34.57031 Q16.89453 32.71484 16.89453 31.34766 Q24.60938 30.07812 33.98438 29.58984 Q35.35156 33.39844 36.23047 35.74219 z" />
<glyph unicode="$" horiz-adv-x="48.04688" d="M34.27734 48.73047 Q34.27734 48.14453 32.12891 45.11719 Q31.83594 44.53125 26.75781 41.89453 Q21.19141 39.16016 19.82422 38.76953 Q7.51953 34.08203 6.64062 30.46875 Q6.25 29.19922 9.27734 27.53906 Q23.33984 22.75391 26.66016 15.03906 Q28.51562 10.9375 27.53906 9.57031 Q24.41406 5.17578 16.69922 1.75781 Q9.96094 -1.46484 2.92969 -3.90625 Q2.34375 -3.22266 2.34375 -2.05078 Q15.33203 3.51562 23.63281 9.96094 Q24.41406 10.54688 23.92578 13.08594 Q23.24219 17.1875 3.80859 27.34375 Q3.125 29.10156 3.125 30.46875 Q3.125 33.00781 5.27344 34.76562 Q8.69141 37.5 14.45312 40.23438 Q17.57812 41.69922 24.12109 44.72656 Q29.29688 47.36328 31.54297 52.24609 Q32.61719 52.24609 33.20312 52.34375 Q34.08203 50.29297 34.27734 48.73047 zM14.84375 -12.98828 Q14.84375 -8.59375 14.84375 4.29688 Q14.94141 9.08203 14.74609 21.48438 Q14.55078 24.60938 13.08594 40.42969 Q12.40234 47.94922 12.20703 54.58984 Q12.10938 54.98047 12.20703 56.64062 Q13.37891 57.22656 15.625 58.39844 Q17.87109 57.51953 18.94531 56.15234 Q18.75 54.78516 18.16406 52.63672 Q15.03906 47.16797 17.28516 36.62109 Q17.08984 31.25 17.77344 19.92188 Q18.65234 5.85938 18.75 2.53906 Q18.94531 -8.30078 16.79688 -14.55078 Q15.52734 -14.35547 14.84375 -12.98828 z" />
<glyph unicode="&#x26;" horiz-adv-x="64.45312" d="M57.91016 17.57812 Q57.42188 16.79688 57.32422 16.60156 Q54.00391 17.57812 51.66016 17.57812 Q49.02344 17.57812 47.55859 16.50391 Q44.53125 14.25781 38.96484 11.13281 Q38.96484 10.54688 38.96484 9.375 Q43.65234 6.93359 45.41016 6.34766 Q48.14453 5.37109 52.44141 5.07812 Q52.73438 4.58984 53.71094 3.22266 Q52.83203 -0.68359 50.09766 -0.39062 Q45.70312 -0.09766 38.08594 5.56641 Q35.15625 7.71484 33.88672 7.71484 Q25.39062 2.53906 17.38281 -0.78125 Q15.23438 -1.66016 13.18359 -1.66016 Q7.71484 -1.66016 2.73438 4.88281 Q0.97656 8.69141 0.97656 12.20703 Q0.97656 16.60156 3.61328 20.70312 Q8.49609 28.41797 13.47656 35.54688 Q13.47656 36.91406 13.47656 38.47656 Q13.47656 44.53125 14.45312 50.97656 Q15.52734 59.27734 26.36719 59.76562 Q31.73828 57.91016 31.93359 54.6875 Q32.42188 48.63281 24.41406 41.60156 Q20.99609 38.67188 19.43359 37.40234 Q22.36328 28.02734 24.60938 23.33984 Q29.19922 13.96484 33.69141 13.96484 Q35.54688 15.625 39.25781 18.94531 Q42.87109 22.26562 46.67969 24.12109 Q49.21875 25.39062 51.46484 25.39062 Q52.73438 25.39062 53.71094 25.09766 Q56.93359 24.21875 57.91016 17.57812 zM29.78516 10.35156 Q20.41016 22.07031 14.94141 32.32422 Q6.34766 22.26562 6.93359 11.52344 Q10.25391 4.49219 17.38281 4.78516 Q24.51172 5.27344 29.78516 10.35156 zM26.66016 50.68359 Q26.66016 53.51562 25.78125 54.49219 Q19.72656 54.00391 18.35938 50.09766 Q17.67578 48.33984 17.87109 40.82031 Q20.50781 41.50391 23.24219 44.82422 Q25.58594 47.65625 26.66016 50.68359 z" />
<glyph unicode="'" horiz-adv-x="15.625" d="M16.69922 64.16016 Q15.52734 59.86328 11.81641 54.78516 Q9.66797 51.75781 5.56641 46.19141 Q3.71094 46.19141 2.24609 46.875 Q3.90625 47.85156 7.42188 56.15234 Q8.88672 59.76562 11.91406 67.08984 Q14.74609 67.28516 16.30859 67.48047 Q16.69922 66.89453 16.69922 64.16016 z" />
<glyph unicode="(" horiz-adv-x="41.01562" d="M43.94531 70.99609 Q42.38281 69.14062 40.42969 67.08984 Q22.85156 53.71094 12.59766 35.83984 Q4.49219 21.77734 4.49219 5.37109 Q4.49219 1.17188 4.98047 -3.22266 Q4.10156 -3.51562 3.71094 -3.51562 Q0.87891 -0.58594 0.87891 4.88281 Q0.87891 5.85938 0.97656 7.32422 Q2.24609 20.41016 10.25391 37.40234 Q14.16016 45.70312 15.23438 47.75391 Q19.43359 55.37109 27.05078 63.67188 Q31.15234 68.16406 35.54688 70.99609 Q38.96484 73.33984 42.08984 73.33984 Q43.06641 73.33984 43.94531 73.04688 Q43.84766 71.97266 43.94531 70.99609 z" />
<glyph unicode=")" horiz-adv-x="26.17188" d="M24.51172 42.48047 Q21.19141 28.22266 13.67188 9.86328 Q9.57031 -0.19531 5.27344 -6.64062 Q2.44141 -10.74219 -0.09766 -10.74219 Q-1.5625 -10.74219 -2.83203 -9.375 Q-1.5625 -4.58984 -0.09766 -1.75781 Q11.32812 14.45312 16.11328 32.03125 Q20.21484 47.26562 20.70312 69.33594 Q24.51172 69.43359 24.90234 57.42188 Q24.90234 55.85938 24.90234 54.10156 Q24.90234 50.78125 24.80469 48.33984 Q24.51172 43.55469 24.51172 42.48047 z" />
<glyph unicode="*" horiz-adv-x="31.73828" d="M22.46094 46.48438 Q22.16797 45.70312 21.19141 45.70312 Q20.21484 45.70312 18.06641 46.97266 Q14.25781 49.12109 12.98828 49.41406 Q10.83984 43.84766 6.83594 32.61719 Q6.44531 32.61719 5.66406 32.61719 Q5.46875 33.00781 5.46875 33.78906 Q5.46875 35.35156 6.25 38.18359 Q7.61719 42.87109 8.00781 45.01953 Q7.71484 45.21484 7.51953 45.41016 Q4.78516 42.38281 2.44141 42.38281 Q1.36719 42.38281 0.29297 43.06641 Q0.29297 44.62891 2.83203 47.16797 Q6.15234 50.39062 6.64062 51.17188 Q2.73438 51.46484 2.05078 51.66016 Q-0.39062 52.14844 -2.14844 53.51562 Q-0.87891 55.17578 0.68359 57.8125 Q2.53906 57.8125 9.76562 55.85938 Q9.57031 59.27734 9.57031 61.32812 Q11.42578 62.40234 12.40234 62.40234 Q13.37891 62.40234 13.67188 61.62109 Q14.25781 60.05859 14.16016 56.93359 Q15.13672 57.12891 17.38281 58.88672 Q19.43359 60.44922 21.19141 60.15625 Q21.19141 59.76562 21.19141 58.98438 Q18.65234 56.64062 18.06641 55.95703 Q16.21094 54.00391 15.72266 52.34375 Q17.77344 51.95312 19.72656 50.29297 Q21.77734 48.53516 22.46094 46.48438 z" />
<glyph unicode="," horiz-adv-x="20.99609" d="M14.35547 -0.19531 Q12.89062 -4.19922 9.47266 -9.375 Q6.93359 -13.47656 3.80859 -13.47656 Q2.92969 -13.47656 1.95312 -13.08594 Q4.29688 -10.15625 6.15234 -7.51953 Q6.83594 -6.44531 6.83594 -4.98047 Q6.83594 -3.02734 5.07812 -0.29297 Q5.07812 4.6875 9.27734 5.27344 Q9.47266 5.37109 10.05859 5.37109 Q13.47656 5.37109 14.35547 -0.19531 z" />
<glyph unicode="-" horiz-adv-x="37.30469" d="M24.80469 18.06641 Q22.55859 15.52734 13.47656 14.45312 Q7.42188 13.67188 0.87891 13.67188 Q0.29297 13.96484 -0.68359 14.64844 Q-0.97656 14.94141 -0.97656 16.30859 Q3.51562 18.84766 11.03516 19.04297 Q15.33203 19.14062 24.12109 19.33594 Q24.70703 18.45703 24.80469 18.16406 Q24.80469 18.06641 24.80469 18.06641 z" />
<glyph unicode="." horiz-adv-x="23.73047" d="M15.23438 3.71094 Q10.74219 0 5.27344 0 Q3.41797 1.66016 2.92969 2.24609 Q1.75781 3.71094 1.5625 5.27344 Q2.73438 7.03125 8.98438 7.8125 Q9.76562 7.91016 10.54688 7.91016 Q15.23438 7.91016 15.23438 3.71094 z" />
<glyph unicode="/" horiz-adv-x="30.37109" d="M32.51953 58.69141 Q30.56641 54.78516 24.60938 43.26172 Q22.36328 39.0625 16.89453 27.92969 Q15.72266 25.09766 9.76562 10.35156 Q6.93359 3.32031 4.10156 -2.73438 Q4.00391 -3.02734 3.22266 -4.49219 Q1.85547 -4.49219 -0.68359 -4.49219 Q-2.24609 -2.73438 -2.63672 -0.97656 Q-2.83203 -0.09766 -2.83203 3.02734 Q2.44141 6.54297 7.71484 15.625 Q10.35156 20.3125 14.94141 30.66406 Q20.50781 43.65234 21.97266 46.67969 Q26.75781 56.34766 31.44531 60.9375 Q32.51953 60.25391 32.51953 58.69141 z" />
<glyph unicode="0" horiz-adv-x="45.60547" d="M37.10938 21.28906 Q35.35156 10.54688 28.71094 4.29688 Q24.90234 0.68359 19.62891 0.68359 Q15.82031 0.68359 11.32812 2.53906 Q0.78125 13.57422 0.78125 26.75781 Q0.78125 26.95312 0.78125 27.24609 Q0.97656 40.72266 13.96484 51.46484 Q15.52734 51.85547 16.60156 51.85547 Q18.35938 51.85547 18.35938 50.78125 Q18.55469 47.75391 12.69531 41.50391 Q10.54688 39.25781 10.25391 38.96484 Q5.27344 30.37109 4.88281 20.99609 Q4.58984 11.62109 12.89062 4.6875 Q16.30859 3.51562 19.04297 3.51562 Q24.31641 3.51562 27.14844 7.91016 Q31.93359 15.23438 32.91016 23.73047 Q33.59375 29.00391 31.64062 34.47266 Q29.49219 40.72266 24.60938 41.50391 Q23.92578 39.84375 23.92578 38.47656 Q23.92578 38.86719 24.51172 34.57031 Q24.60938 34.27734 24.60938 33.98438 Q24.21875 33.78906 23.53516 33.20312 Q17.57812 35.64453 17.57812 39.45312 Q17.57812 41.99219 21.19141 44.92188 Q22.85156 45.21484 24.31641 45.21484 Q31.93359 45.21484 34.375 37.59766 Q37.10938 29.00391 37.10938 22.07031 Q37.10938 21.67969 37.10938 21.28906 z" />
<glyph unicode="1" horiz-adv-x="41.99219" d="M29.98047 -5.66406 Q29.29688 -6.15234 28.32031 -6.15234 Q28.22266 -6.15234 28.125 -6.15234 Q27.83203 -6.15234 27.63672 -6.05469 Q26.95312 -5.95703 26.36719 -5.56641 Q25 -4.00391 27.44141 19.53125 Q28.125 33.30078 24.60938 44.33594 Q24.02344 46.28906 21.19141 44.23828 Q18.45703 42.38281 15.23438 40.33203 Q11.62109 37.98828 10.25391 38.37891 Q9.66797 39.35547 9.66797 40.23438 Q9.66797 40.91797 9.86328 41.60156 Q16.69922 48.53516 22.65625 51.17188 Q23.33984 51.36719 23.92578 51.36719 Q24.80469 51.26953 25.58594 51.07422 Q30.07812 50.09766 29.88281 40.625 Q29.98047 35.15625 30.66406 27.92969 Q31.44531 20.01953 31.44531 5.17578 Q31.44531 2.53906 31.44531 -0.39062 Q30.66406 -5.07812 29.98047 -5.66406 z" />
<glyph unicode="2" horiz-adv-x="44.82422" d="M43.26172 4.58984 Q43.26172 2.53906 33.00781 0.78125 Q31.25 0.58594 28.90625 0.58594 Q22.65625 0.58594 12.30469 1.66016 Q10.9375 3.80859 10.9375 7.03125 Q10.9375 8.59375 11.23047 10.05859 Q17.38281 20.80078 31.05469 35.44922 Q34.17969 41.69922 31.44531 45.3125 Q29.98047 47.26562 29.29688 47.65625 Q29.00391 47.75391 28.71094 47.75391 Q27.73438 47.75391 25.87891 47.16797 Q23.14453 45.50781 17.48047 42.38281 Q12.79297 39.84375 8.59375 38.47656 Q6.34766 39.84375 6.34766 41.40625 Q6.34766 42.57812 7.51953 43.84766 Q10.64453 47.36328 16.69922 49.41406 Q21.875 51.17188 27.34375 51.36719 Q27.63672 51.36719 28.02734 51.36719 Q33.78906 51.36719 36.23047 48.04688 Q37.98828 45.50781 36.81641 40.42969 Q34.86328 35.05859 30.85938 29.49219 Q25.48828 21.58203 19.92188 15.91797 Q16.79688 12.98828 16.11328 5.27344 Q27.24609 4.39453 34.47266 7.22656 Q37.5 8.10547 39.25781 8.20312 Q42.38281 7.91016 43.06641 5.66406 Q43.26172 5.27344 43.26172 4.98047 Q43.26172 4.78516 43.26172 4.58984 z" />
<glyph unicode="3" horiz-adv-x="43.26172" d="M33.88672 41.50391 Q33.20312 36.32812 29.49219 32.91016 Q26.26953 29.88281 26.5625 25.39062 Q32.22656 14.94141 32.22656 10.05859 Q32.22656 8.98438 32.03125 8.20312 Q30.56641 3.80859 20.99609 -5.46875 Q20.11719 -6.83594 18.26172 -9.57031 Q16.40625 -12.30469 15.13672 -13.18359 Q14.45312 -12.69531 14.25781 -12.40234 Q15.33203 -8.20312 18.55469 -4.00391 Q19.04297 -3.22266 24.70703 3.32031 Q26.95312 6.54297 26.75781 10.35156 Q26.46484 14.16016 20.99609 20.80078 Q19.43359 22.75391 20.80078 25.39062 Q22.65625 28.90625 27.05078 38.18359 Q27.83203 39.74609 27.83203 41.60156 Q27.83203 43.06641 27.34375 44.43359 Q24.02344 47.85156 20.89844 47.85156 Q18.94531 47.85156 17.08984 46.48438 Q12.20703 42.87109 7.61719 42.96875 Q4.98047 45.89844 4.98047 47.75391 Q4.98047 48.63281 5.46875 49.21875 Q7.32422 51.17188 11.71875 51.66016 Q13.86719 51.95312 16.11328 51.95312 Q18.45703 51.95312 20.89844 51.66016 Q25.78125 51.17188 27.63672 50.68359 Q31.25 49.41406 32.61719 47.46094 Q33.88672 45.41016 33.88672 41.50391 z" />
<glyph unicode="4" horiz-adv-x="48.63281" d="M44.82422 19.92188 Q42.08984 15.13672 39.0625 13.18359 Q36.71875 11.71875 31.73828 11.03516 Q27.83203 10.83984 23.92578 10.44922 Q21.19141 4.58984 20.50781 -7.91016 Q17.1875 -7.12891 17.1875 -3.71094 Q17.1875 -2.24609 17.77344 -0.19531 Q19.72656 6.25 20.60547 10.25391 Q10.35156 11.23047 6.93359 14.45312 Q4.10156 17.08984 4.10156 20.99609 Q4.10156 25.97656 8.30078 33.49609 Q11.62109 39.45312 15.52734 46.48438 Q17.77344 49.90234 18.45703 50.58594 Q20.01953 52.05078 23.14453 52.44141 Q24.80469 50.68359 24.80469 48.33984 Q22.16797 44.92188 17.08984 38.28125 Q9.66797 28.51562 9.66797 22.46094 Q9.66797 20.21484 10.74219 18.16406 Q12.69531 14.25781 22.07031 13.37891 Q22.65625 17.08984 23.92578 21.67969 Q24.51172 24.12109 26.07422 25.97656 Q26.85547 26.95312 27.83203 26.95312 Q28.61328 26.95312 29.39453 26.46484 Q29.39453 23.92578 27.73438 20.01953 Q26.07422 16.11328 25.97656 14.16016 Q30.66406 15.03906 35.35156 16.01562 Q40.13672 17.48047 42.67578 21.48438 Q43.16406 21.48438 44.43359 21.77734 Q44.82422 20.80078 44.82422 20.3125 Q44.82422 20.21484 44.82422 20.11719 Q44.82422 20.01953 44.82422 19.92188 z" />
<glyph unicode="5" horiz-adv-x="33.78906" d="M34.375 47.85156 Q33.00781 46.77734 30.56641 46.77734 Q28.80859 46.77734 26.36719 47.46094 Q20.80078 48.63281 17.48047 48.82812 Q10.74219 46.19141 5.76172 44.62891 Q5.56641 43.75 5.37109 42.87109 Q16.11328 39.45312 21.48438 31.34766 Q24.70703 26.5625 24.70703 20.50781 Q24.70703 16.50391 23.24219 11.91406 Q19.82422 6.34766 12.89062 -0.58594 Q4.58984 -8.78906 0.09766 -8.78906 Q-0.29297 -8.30078 -0.97656 -7.22656 Q-1.07422 -7.03125 -1.07422 -6.54297 Q-1.07422 -5.95703 -0.87891 -5.07812 Q9.57031 0.09766 12.40234 2.14844 Q18.16406 6.54297 20.99609 14.35547 Q21.09375 24.60938 16.01562 30.07812 Q12.5 33.88672 1.75781 38.96484 Q0.87891 40.13672 0.87891 41.40625 Q0.87891 43.55469 3.41797 45.89844 Q7.71484 49.80469 14.0625 52.14844 Q20.21484 54.39453 26.17188 54.49219 Q26.36719 54.49219 26.46484 54.49219 Q32.51953 54.49219 34.47266 50.58594 Q34.47266 49.21875 34.47266 49.21875 Q34.375 47.46094 34.375 47.85156 z" />
<glyph unicode="6" horiz-adv-x="40.82031" d="M31.73828 10.83984 Q31.34766 3.41797 24.02344 0.97656 Q19.14062 -0.58594 15.42969 -0.58594 Q5.07812 -0.58594 5.07812 13.08594 Q5.07812 16.30859 5.85938 20.11719 Q7.8125 29.58984 13.37891 39.45312 Q19.82422 50.78125 26.95312 54.98047 Q27.73438 54.88281 29.29688 54.88281 Q30.66406 52.44141 30.95703 50.87891 Q30.07812 49.60938 22.26562 43.65234 Q17.08984 37.59766 12.98828 29.49219 Q8.10547 19.92188 8.10547 13.37891 Q8.10547 10.54688 8.98438 8.20312 Q10.74219 3.22266 19.43359 3.02734 Q24.31641 5.85938 24.90234 6.54297 Q26.17188 8.00781 26.36719 12.89062 Q24.80469 16.40625 21.97266 16.40625 Q20.41016 16.40625 18.65234 15.52734 Q13.96484 13.18359 12.10938 13.18359 Q11.81641 13.18359 11.62109 13.18359 Q11.62109 13.67188 11.62109 14.74609 Q18.35938 20.11719 24.31641 20.50781 Q27.53906 20.70312 29.6875 18.65234 Q31.73828 16.69922 31.73828 12.01172 Q31.73828 11.42578 31.73828 10.83984 z" />
<glyph unicode="7" horiz-adv-x="48.14453" d="M41.11328 43.45703 Q38.67188 33.98438 29.00391 21.48438 Q17.57812 6.25 14.74609 0.48828 Q12.98828 0.29297 9.47266 -0.19531 Q9.47266 0.09766 8.59375 1.5625 Q7.71484 2.92969 7.91016 3.32031 Q16.60156 8.69141 26.66016 23.82812 Q36.13281 38.08594 36.13281 46.28906 Q36.13281 46.97266 36.13281 47.55859 Q34.66797 48.24219 32.12891 48.24219 Q29.78516 48.24219 27.14844 47.75391 Q22.94922 46.875 14.45312 45.11719 Q8.00781 43.84766 2.73438 43.75 Q-2.44141 43.65234 -3.02734 47.46094 Q-1.26953 49.31641 6.15234 49.41406 Q9.57031 49.41406 16.60156 49.51172 Q20.99609 50.19531 28.51562 51.75781 Q30.85938 52.24609 32.91016 52.24609 Q37.5 52.24609 40.52734 49.80469 Q41.11328 46.97266 41.11328 43.45703 zM13.57422 29.58984 Q22.16797 30.27344 56.05469 30.46875 Q56.34766 30.17578 56.64062 29.39453 Q49.21875 27.05078 33.69141 25.39062 Q18.35938 23.82812 10.05859 24.70703 Q9.08203 25.48828 8.69141 26.07422 Q9.76562 28.32031 13.57422 29.58984 z" />
<glyph unicode="8" horiz-adv-x="40.13672" d="M28.61328 47.75391 Q27.83203 40.72266 25 34.86328 Q23.4375 32.03125 17.67578 23.63281 Q18.65234 19.72656 19.14062 15.82031 Q19.62891 11.23047 19.53125 6.34766 Q19.23828 -2.63672 10.83984 -6.34766 Q10.74219 -6.34766 10.54688 -6.34766 Q3.90625 -6.34766 2.83203 -3.02734 Q2.53906 -2.14844 2.44141 -1.17188 Q1.75781 4.6875 8.30078 14.84375 Q9.96094 17.38281 13.08594 22.46094 Q12.89062 24.51172 11.42578 27.34375 Q10.74219 28.80859 9.08203 31.93359 Q5.46875 37.5 2.73438 42.08984 Q2.34375 42.77344 2.34375 43.55469 Q2.24609 43.75 2.24609 43.94531 Q2.24609 47.26562 9.66797 50.39062 Q10.9375 48.82812 11.03516 47.85156 Q11.13281 47.16797 10.74219 46.58203 Q9.76562 45.50781 8.39844 43.45703 Q8.39844 42.38281 8.59375 41.21094 Q8.88672 37.79297 10.64453 34.96094 Q12.79297 31.54297 15.13672 27.34375 Q16.01562 26.95312 16.79688 26.85547 Q19.04297 29.98047 23.73047 37.01172 Q26.17188 40.52734 25.87891 43.55469 Q25.58594 46.19141 23.33984 48.4375 Q19.72656 49.31641 16.40625 51.26953 Q16.69922 55.56641 20.01953 55.95703 Q20.3125 55.95703 20.60547 55.95703 Q21.48438 55.95703 22.46094 55.76172 Q27.92969 54.49219 28.71094 47.94922 Q28.71094 47.85156 28.61328 47.75391 zM16.60156 11.23047 Q16.21094 15.03906 16.01562 19.04297 Q15.52734 19.14062 15.42969 19.33594 Q10.25391 15.42969 7.91016 9.375 Q6.15234 5.66406 6.34766 2.05078 Q6.44531 0.09766 7.12891 -1.75781 Q8.00781 -2.73438 8.49609 -2.83203 Q8.98438 -2.83203 10.9375 -2.24609 Q15.625 3.71094 16.60156 11.23047 z" />
<glyph unicode="9" horiz-adv-x="43.55469" d="M28.51562 6.83594 Q27.73438 5.56641 25.97656 2.83203 Q23.92578 -0.97656 21.09375 -1.75781 Q19.72656 -2.14844 18.65234 -2.14844 Q16.99219 -2.14844 16.30859 -1.17188 Q14.94141 1.36719 27.14844 14.94141 Q34.57031 25.39062 33.69141 33.69141 Q33.98438 35.05859 31.54297 35.05859 Q28.80859 35.05859 25.09766 35.05859 Q13.67188 34.66797 9.47266 35.64453 Q8.30078 35.9375 6.83594 36.52344 Q3.125 37.89062 2.05078 42.48047 Q4.39453 51.36719 16.50391 51.66016 Q17.08984 51.75781 17.77344 51.75781 Q24.12109 51.75781 34.47266 49.31641 Q35.35156 49.12109 36.23047 48.82812 Q36.52344 47.94922 37.10938 46.875 Q36.52344 45.70312 36.42578 45.11719 Q32.51953 44.43359 28.80859 45.01953 Q26.36719 45.41016 21.38672 46.19141 Q13.67188 47.55859 8.78906 42.48047 Q7.91016 38.86719 11.13281 37.98828 Q15.91797 36.81641 29.00391 38.37891 Q33.98438 39.0625 36.91406 38.37891 Q40.625 37.40234 40.625 33.00781 Q40.625 25.68359 29.88281 8.59375 Q29.29688 7.8125 28.51562 6.83594 z" />
<glyph unicode=":" horiz-adv-x="22.75391" d="M13.28125 6.15234 Q10.54688 2.34375 8.39844 2.34375 Q8.30078 2.34375 8.20312 2.34375 Q4.88281 2.53906 4.88281 5.85938 Q4.88281 7.12891 5.66406 8.69141 Q6.83594 11.13281 11.23047 11.71875 Q11.42578 10.05859 11.71875 9.57031 Q12.01172 9.17969 13.28125 8.00781 Q13.28125 7.42188 13.28125 6.15234 zM13.96484 28.71094 Q14.64844 25.87891 14.64844 23.82812 Q14.64844 20.99609 13.47656 18.06641 Q11.52344 17.28516 10.44922 16.79688 Q9.76562 16.50391 8.88672 16.50391 Q8.10547 16.50391 7.12891 16.79688 Q6.73828 17.48047 6.73828 18.84766 Q6.73828 20.99609 7.8125 24.60938 Q9.08203 29.10156 12.01172 29.10156 Q12.89062 29.10156 13.96484 28.71094 z" />
<glyph unicode=";" horiz-adv-x="26.95312" d="M18.06641 15.72266 Q15.33203 11.81641 13.08594 12.01172 Q9.76562 12.30469 9.76562 15.625 Q9.76562 16.99219 10.54688 18.45703 Q11.81641 20.89844 16.11328 21.48438 Q16.30859 19.72656 16.60156 19.23828 Q16.79688 18.75 18.06641 17.77344 Q18.06641 16.79688 18.06641 16.79688 Q18.06641 15.42969 18.06641 15.72266 zM14.64844 -0.09766 Q13.18359 -4.10156 9.76562 -9.27734 Q7.12891 -13.37891 4.10156 -13.37891 Q3.22266 -13.37891 2.24609 -12.98828 Q4.58984 -10.05859 6.34766 -7.42188 Q7.12891 -6.34766 7.12891 -4.88281 Q7.12891 -2.92969 5.37109 -0.19531 Q5.37109 4.78516 9.47266 5.37109 Q9.76562 5.46875 10.35156 5.46875 Q13.76953 5.46875 14.64844 -0.09766 z" />
<glyph unicode="?" horiz-adv-x="81.83594" d="M52.24609 0.39062 Q47.55859 -3.32031 42.28516 -3.32031 Q40.33203 -1.36719 39.94141 -0.97656 Q38.86719 0.39062 38.57422 1.95312 Q39.74609 3.71094 45.99609 4.49219 Q46.77734 4.58984 47.55859 4.58984 Q52.24609 4.58984 52.24609 0.39062 zM31.93359 64.74609 Q46.58203 64.74609 55.66406 62.30469 Q67.87109 59.08203 76.17188 50.68359 Q77.44141 47.55859 77.44141 45.01953 Q77.44141 42.08984 75.68359 40.23438 Q70.50781 34.57031 55.37109 31.93359 Q49.41406 30.85938 46.875 28.90625 Q42.28516 24.31641 42.28516 21.09375 Q42.28516 16.89453 50.58594 12.59766 Q47.16797 12.20703 40.72266 16.21094 Q36.13281 18.94531 36.13281 22.55859 Q36.13281 24.31641 37.10938 26.17188 Q39.84375 29.98047 46.77734 32.8125 Q50.48828 34.27734 58.00781 37.30469 Q63.67188 39.55078 66.60156 42.77344 Q68.06641 44.23828 68.06641 46.19141 Q68.06641 48.63281 66.01562 51.66016 Q61.91406 57.42188 55.07812 58.39844 Q51.5625 58.78906 47.55859 58.78906 Q44.33594 58.78906 41.89453 58.49609 Q38.08594 58.10547 30.37109 57.42188 Q29.88281 57.32422 29.00391 57.32422 Q25.09766 57.32422 24.12109 60.05859 Q24.12109 62.30469 27.14844 63.47656 Q28.125 63.96484 31.93359 64.74609 z" />
<glyph unicode="@" horiz-adv-x="69.53125" d="M64.35547 41.01562 Q62.89062 31.34766 56.15234 24.60938 Q53.02734 21.48438 49.51172 21.28906 Q45.99609 21.09375 43.06641 26.46484 Q42.67578 27.34375 42.08984 29.29688 Q41.50391 30.85938 41.21094 32.03125 Q40.72266 32.12891 39.94141 32.12891 Q33.69141 23.82812 27.73438 22.46094 Q25.97656 21.97266 24.41406 21.97266 Q19.92188 21.97266 14.74609 24.90234 Q12.40234 28.51562 12.40234 31.34766 Q12.40234 33.39844 13.47656 35.05859 Q16.30859 39.16016 20.89844 40.72266 Q23.04688 41.30859 25.09766 41.30859 Q27.44141 41.30859 29.49219 40.52734 Q32.61719 39.35547 32.61719 36.03516 Q32.61719 35.05859 32.32422 33.78906 Q27.44141 33.98438 21.67969 34.96094 Q21.09375 35.05859 20.41016 35.05859 Q15.82031 35.05859 15.23438 28.71094 Q18.84766 25.58594 22.55859 25.58594 Q26.36719 25.58594 30.07812 28.80859 Q37.59766 35.25391 42.08984 41.21094 Q43.84766 41.21094 44.14062 37.5 Q44.33594 35.83984 44.43359 32.42188 Q44.92188 29.49219 46.97266 27.73438 Q47.75391 27.05078 49.12109 27.05078 Q51.17188 27.05078 54.6875 28.51562 Q58.49609 32.61719 60.25391 37.89062 Q61.03516 39.74609 61.03516 41.99219 Q61.03516 45.41016 59.17969 49.31641 Q52.24609 57.22656 44.92188 58.69141 Q42.28516 59.27734 39.74609 59.27734 Q28.41797 59.27734 17.38281 49.41406 Q11.32812 43.84766 6.73828 37.79297 Q2.24609 28.61328 2.24609 21.58203 Q2.24609 6.44531 22.75391 2.34375 Q27.44141 2.44141 28.22266 2.44141 Q29.10156 2.44141 29.58984 2.14844 Q29.29688 0.87891 29.10156 0.39062 Q25.39062 -0.48828 21.67969 -0.48828 Q18.35938 -0.48828 15.42969 0.19531 Q1.36719 3.32031 -2.44141 15.91797 Q-3.32031 18.65234 -3.32031 21.48438 Q-3.32031 25.39062 -1.66016 29.49219 Q1.46484 37.59766 10.74219 48.53516 Q19.33594 58.78906 31.15234 61.62109 Q33.20312 61.62109 35.25391 61.62109 Q45.50781 61.62109 53.71094 59.375 Q63.37891 56.64062 64.35547 41.01562 z" />
<glyph unicode="A" horiz-adv-x="71.09375" d="M62.89062 4.58984 Q58.98438 4.58984 56.34766 7.32422 Q54.10156 10.35156 51.95312 13.37891 Q37.40234 13.37891 18.06641 4.78516 Q17.48047 4.78516 16.30859 4.78516 Q14.74609 6.15234 14.74609 7.51953 Q14.74609 9.17969 17.08984 10.54688 Q24.31641 14.94141 40.23438 17.38281 Q46.48438 18.35938 47.55859 18.65234 Q47.55859 21.77734 41.40625 29.49219 Q35.05859 37.40234 32.12891 37.40234 Q29.00391 33.98438 22.75391 27.34375 Q19.92188 23.04688 12.40234 11.91406 Q4.39453 0.39062 0.29297 0.09766 Q-0.68359 1.46484 -0.68359 3.22266 Q-0.68359 5.85938 1.36719 9.17969 Q7.03125 18.75 21.48438 32.12891 Q27.34375 37.5 29.98047 40.72266 Q32.71484 42.57812 34.27734 42.57812 Q35.83984 42.57812 39.94141 39.25781 Q43.55469 34.57031 52.92969 22.36328 Q62.89062 8.98438 62.89062 4.58984 z" />
<glyph unicode="B" horiz-adv-x="49.21875" d="M39.45312 8.49609 Q36.81641 3.22266 26.75781 -7.71484 Q16.11328 -19.14062 12.10938 -20.01953 Q11.81641 -18.35938 11.81641 -17.87109 Q14.94141 -15.42969 20.11719 -9.375 Q22.75391 -6.34766 27.83203 -0.39062 Q33.20312 6.34766 33.20312 11.52344 Q33.20312 13.08594 32.71484 14.16016 Q30.46875 19.23828 20.01953 25.87891 Q20.01953 26.46484 20.01953 27.53906 Q30.07812 31.83594 30.07812 35.35156 Q30.07812 36.62109 28.80859 37.89062 Q24.12109 42.48047 13.67188 42.48047 Q10.83984 42.08984 4.78516 40.52734 Q2.92969 40.03906 1.46484 40.03906 Q-1.46484 40.03906 -2.05078 42.28516 Q-1.5625 46.875 3.22266 48.04688 Q5.76172 48.53516 8.88672 48.53516 Q15.42969 48.53516 23.53516 45.60547 Q30.07812 43.16406 31.64062 40.52734 Q33.49609 37.10938 33.49609 34.96094 Q33.49609 32.71484 31.64062 31.93359 Q27.83203 30.27344 27.83203 26.75781 Q33.69141 22.07031 35.9375 18.94531 Q39.16016 14.55078 39.45312 8.49609 zM13.08594 11.62109 Q12.79297 11.32812 12.59766 10.54688 Q12.01172 10.54688 10.9375 10.54688 Q9.47266 13.86719 7.22656 22.07031 Q6.15234 26.17188 5.56641 29.29688 Q5.37109 30.56641 5.37109 31.44531 Q5.37109 32.91016 5.95703 33.49609 Q7.22656 33.20312 8.20312 33.20312 Q11.91406 26.95312 13.08594 11.62109 z" />
<glyph unicode="C" horiz-adv-x="39.55078" d="M35.54688 45.70312 Q32.22656 42.38281 26.07422 38.67188 Q22.75391 36.62109 16.01562 32.51953 Q5.76172 25.39062 5.76172 15.42969 Q5.76172 14.55078 5.85938 13.37891 Q6.15234 9.57031 12.30469 6.44531 Q16.89453 4.10156 21.875 3.22266 Q22.75391 3.22266 25.68359 3.41797 Q28.22266 3.51562 29.78516 2.63672 Q29.49219 1.75781 29.49219 1.46484 Q27.24609 0.78125 24.60938 0.78125 Q22.94922 0.78125 20.89844 1.17188 Q16.01562 1.95312 12.89062 2.92969 Q2.73438 7.91016 1.75781 15.42969 Q1.5625 16.99219 1.5625 18.06641 Q1.5625 31.64062 17.57812 42.57812 Q25.48828 48.04688 33.10547 49.02344 Q33.78906 48.33984 35.44922 47.55859 Q35.44922 46.28906 35.54688 45.70312 z" />
<glyph unicode="D" horiz-adv-x="46.09375" d="M38.86719 23.24219 Q37.40234 14.45312 25.29297 1.95312 Q13.08594 -10.83984 4.49219 -12.10938 Q4.00391 -11.32812 4.10156 -11.32812 Q16.11328 -1.46484 19.92188 2.24609 Q28.51562 10.35156 33.00781 18.26172 Q33.69141 20.89844 33.69141 23.24219 Q33.69141 26.46484 32.42188 29.10156 Q28.02734 38.08594 15.72266 43.55469 Q10.54688 45.89844 5.56641 47.55859 Q4.10156 47.65625 1.17188 48.04688 Q-1.46484 48.53516 -2.73438 49.70703 Q-1.36719 54.29688 3.41797 54.29688 Q12.59766 54.29688 26.75781 44.62891 Q33.59375 40.03906 35.54688 37.01172 Q38.86719 31.93359 38.86719 23.24219 zM8.49609 8.10547 Q8.20312 7.12891 7.12891 5.76172 Q4.88281 8.00781 3.71094 21.97266 Q3.22266 27.24609 2.24609 41.01562 Q3.32031 41.79688 5.95703 41.99219 Q8.20312 37.89062 8.49609 24.90234 Q8.69141 20.41016 8.49609 15.03906 Q8.49609 12.69531 8.49609 10.9375 Q8.49609 9.27734 8.49609 8.10547 z" />
<glyph unicode="E" horiz-adv-x="62.01172" d="M56.34766 8.49609 Q43.55469 2.14844 30.85938 0.09766 Q29.00391 -0.09766 26.95312 -0.09766 Q16.50391 -0.09766 7.91016 8.78906 Q7.32422 11.03516 5.85938 13.96484 Q-0.58594 11.03516 -2.92969 11.03516 Q-3.61328 11.71875 -4.00391 14.25781 Q-3.22266 14.94141 6.34766 19.14062 Q8.00781 25.87891 11.81641 33.39844 Q16.79688 43.35938 21.48438 42.87109 Q21.97266 41.79688 21.97266 40.52734 Q21.97266 37.40234 19.23828 32.91016 Q15.13672 26.36719 14.0625 23.24219 Q15.33203 23.33984 24.21875 26.5625 Q29.58984 28.51562 35.83984 30.37109 Q36.62109 28.51562 37.10938 27.14844 Q37.40234 26.36719 37.40234 25.68359 Q37.40234 24.90234 37.01172 24.60938 Q18.55469 23.04688 12.10938 16.69922 Q11.42578 14.45312 11.52344 12.59766 Q11.52344 10.83984 13.86719 8.49609 Q22.36328 3.22266 30.37109 3.22266 Q32.51953 3.22266 34.76562 3.71094 Q44.92188 5.56641 56.83594 10.05859 Q56.54297 9.57031 56.34766 8.49609 zM54.00391 63.67188 Q52.44141 62.98828 47.55859 62.30469 Q31.05469 56.34766 -0.58594 40.52734 Q-3.02734 41.01562 -3.32031 42.08984 Q-3.51562 43.94531 -3.61328 45.70312 Q0.09766 49.02344 25.39062 57.91016 Q35.54688 61.42578 44.14062 63.67188 Q49.80469 65.23438 52.44141 65.23438 Q53.80859 65.23438 54.29688 64.84375 Q54.00391 63.96484 54.00391 63.67188 z" />
<glyph unicode="F" horiz-adv-x="60.54688" d="M64.74609 63.67188 Q58.20312 60.64453 43.94531 55.27344 Q30.07812 50 23.04688 46.67969 Q22.55859 37.5 21.09375 26.46484 Q24.80469 27.92969 32.12891 30.85938 Q38.67188 33.49609 43.65234 33.49609 Q43.84766 33.20312 44.04297 32.91016 Q40.625 27.73438 33.00781 25.39062 Q23.24219 22.46094 20.41016 20.41016 Q19.62891 16.99219 19.33594 9.27734 Q19.04297 2.24609 16.50391 2.24609 Q16.21094 2.24609 15.82031 2.24609 Q15.52734 3.22266 15.52734 5.07812 Q15.52734 6.93359 15.72266 17.1875 Q15.03906 17.38281 13.67188 17.87109 Q12.40234 18.26172 11.62109 18.65234 Q11.62109 21.48438 16.21094 24.41406 Q16.69922 33.59375 17.38281 43.35938 Q7.61719 43.35938 -3.71094 31.93359 Q-5.27344 31.93359 -5.95703 32.12891 Q-5.95703 33.00781 -6.15234 34.66797 Q-6.34766 36.32812 -6.34766 37.30469 Q-6.34766 39.16016 -5.07812 41.01562 Q34.76562 58.00781 64.64844 65.23438 Q64.64844 64.16016 64.74609 63.67188 z" />
<glyph unicode="G" horiz-adv-x="61.71875" d="M54.78516 18.94531 Q50.19531 7.61719 37.40234 4.00391 Q30.17578 1.95312 23.92578 1.95312 Q18.94531 1.95312 14.64844 3.22266 Q3.22266 9.27734 0.68359 16.60156 Q0.09766 18.55469 0.09766 20.89844 Q0.09766 27.44141 5.37109 37.20703 Q15.23438 48.04688 22.26562 53.125 Q32.42188 60.35156 43.65234 61.52344 Q46.48438 59.08203 46.48438 56.93359 Q46.48438 55.95703 45.89844 55.07812 Q43.65234 51.66016 41.99219 48.82812 Q41.40625 48.82812 40.23438 48.82812 Q38.86719 50.78125 37.30469 53.51562 Q27.83203 53.51562 15.72266 42.57812 Q11.32812 38.67188 8.10547 34.27734 Q3.71094 28.32031 3.80859 24.41406 Q4.49219 8.30078 16.50391 5.66406 Q19.92188 4.88281 23.4375 4.88281 Q32.03125 4.88281 41.01562 9.375 Q43.55469 11.23047 46.48438 14.64844 Q48.14453 16.50391 48.14453 18.65234 Q48.14453 20.41016 46.97266 22.46094 Q44.14062 24.31641 39.64844 24.31641 Q37.01172 24.31641 33.69141 23.63281 Q24.90234 21.875 21.58203 19.53125 Q21.28906 19.62891 20.41016 19.92188 Q20.21484 20.99609 20.21484 21.28906 Q26.5625 25.48828 37.89062 27.34375 Q40.52734 27.73438 43.55469 27.73438 Q45.99609 27.73438 48.04688 27.44141 Q52.83203 26.66016 54.58984 22.75391 Q54.58984 20.99609 54.78516 18.94531 z" />
<glyph unicode="H" horiz-adv-x="70.11719" d="M73.92578 38.57422 Q69.62891 35.54688 67.57812 34.66797 Q65.03906 33.59375 60.35156 33.10547 Q57.71484 31.25 57.91016 26.85547 Q59.08203 18.75 59.76562 9.17969 Q60.05859 5.27344 57.22656 4.6875 Q55.27344 8.69141 55.46875 17.28516 Q55.56641 22.07031 55.85938 31.64062 Q50.97656 31.64062 37.40234 28.125 Q23.4375 24.51172 19.62891 21.67969 Q20.21484 18.16406 19.92188 10.83984 Q20.11719 -0.87891 17.38281 -1.75781 Q17.28516 -1.75781 17.28516 -1.75781 Q16.11328 -1.75781 16.69922 9.08203 Q16.50391 16.01562 15.91797 20.41016 Q15.23438 21.09375 14.35547 21.09375 Q13.57422 21.09375 12.59766 20.60547 Q6.64062 17.38281 4.29688 17.48047 Q2.44141 17.48047 1.17188 21.09375 Q3.02734 24.70703 7.51953 25.87891 Q9.57031 26.36719 15.82031 26.66016 Q15.82031 27.83203 15.52734 32.42188 Q15.42969 33.88672 15.42969 36.03516 Q15.42969 38.57422 15.72266 41.30859 Q16.60156 52.14844 22.46094 52.14844 Q22.94922 52.14844 23.53516 52.05078 Q24.60938 50.97656 24.60938 48.4375 Q24.60938 44.82422 23.33984 40.03906 Q21.48438 32.8125 20.41016 27.44141 Q28.51562 27.92969 37.98828 30.37109 Q44.04297 31.93359 56.15234 35.15625 Q56.64062 39.74609 58.69141 51.5625 Q61.42578 65.625 66.60156 65.625 Q67.57812 63.76953 67.57812 61.13281 Q67.57812 57.03125 65.23438 51.46484 Q61.32812 42.08984 60.35156 36.71875 Q62.69531 37.20703 67.1875 38.08594 Q71.09375 38.86719 74.12109 39.55078 Q74.21875 39.35547 74.21875 39.0625 Q74.21875 38.86719 73.92578 38.57422 z" />
<glyph unicode="I" horiz-adv-x="26.46484" d="M16.69922 34.47266 Q16.60156 33.00781 16.30859 28.80859 Q15.72266 19.04297 14.45312 12.79297 Q13.76953 9.17969 12.59766 8.00781 Q11.13281 9.47266 11.03516 16.79688 Q11.13281 20.01953 10.83984 27.44141 Q10.64453 30.66406 9.27734 39.64844 Q8.78906 42.38281 7.32422 50 Q7.32422 56.15234 7.51953 56.73828 Q8.20312 59.47266 12.59766 60.25391 Q16.40625 55.66406 16.60156 47.65625 Q16.69922 40.13672 16.69922 36.81641 Q16.69922 35.05859 16.69922 34.47266 z" />
<glyph unicode="J" horiz-adv-x="32.12891" d="M22.07031 32.61719 Q21.67969 17.57812 18.84766 6.15234 Q16.21094 -4.39453 5.85938 -16.01562 Q0.68359 -19.62891 -2.92969 -22.07031 Q-3.80859 -21.28906 -4.10156 -20.99609 Q-4.10156 -20.41016 -4.00391 -19.43359 Q-3.80859 -18.65234 -3.80859 -17.87109 Q8.20312 -8.69141 12.30469 -1.46484 Q16.50391 6.15234 17.08984 20.89844 Q16.79688 24.90234 13.86719 40.52734 Q11.62109 52.34375 11.62109 60.15625 Q14.64844 62.69531 16.40625 62.69531 Q18.16406 62.69531 18.84766 60.35156 Q20.3125 55.76172 21.48438 50.87891 Q21.97266 44.14062 21.97266 41.60156 Q22.16797 38.47656 22.16797 35.74219 Q22.16797 34.08203 22.07031 32.61719 z" />
<glyph unicode="K" horiz-adv-x="61.71875" d="M66.21094 63.96484 Q56.54297 58.59375 27.73438 42.1875 Q24.60938 40.33203 20.60547 37.89062 Q20.60547 32.61719 22.85156 29.49219 Q24.41406 27.24609 29.10156 24.60938 Q32.8125 22.75391 36.52344 20.89844 Q44.62891 17.87109 52.92969 14.94141 Q52.73438 14.25781 52.73438 13.18359 Q46.28906 13.18359 39.35547 15.72266 Q36.03516 16.89453 27.14844 21.19141 Q19.43359 24.90234 14.45312 26.46484 Q14.45312 26.85547 14.55078 22.07031 Q14.74609 13.67188 13.37891 8.49609 Q12.79297 6.15234 11.52344 6.15234 Q11.32812 6.15234 11.03516 6.15234 Q11.03516 10.44922 10.64453 19.14062 Q10.25391 28.71094 7.91016 30.27344 Q6.34766 30.27344 3.80859 29.49219 Q0.87891 28.71094 -0.39062 28.61328 Q-3.32031 28.32031 -3.32031 30.07812 Q-3.32031 31.34766 -1.36719 34.08203 Q4.19922 36.52344 8.20312 38.37891 Q8.20312 42.87109 6.15234 51.66016 Q5.07812 56.15234 5.07812 58.98438 Q5.07812 62.30469 6.34766 64.16016 Q13.96484 64.16016 14.25781 48.04688 Q14.35547 45.89844 14.45312 41.50391 Q24.60938 43.16406 40.23438 52.83203 Q57.22656 63.28125 66.01562 65.72266 Q66.01562 64.64844 66.21094 63.96484 z" />
<glyph unicode="L" horiz-adv-x="54.10156" d="M49.60938 8.98438 Q46.38672 8.20312 36.91406 5.85938 Q24.31641 2.53906 16.40625 2.53906 Q13.76953 2.53906 10.83984 3.02734 Q4.78516 3.80859 2.92969 8.20312 Q3.22266 13.96484 5.56641 22.26562 Q6.83594 26.85547 9.375 36.13281 Q9.57031 38.57422 10.15625 45.70312 Q11.32812 57.91016 20.50781 58.78906 Q20.89844 58.49609 20.89844 57.42188 Q20.89844 55.56641 19.72656 51.85547 Q17.08984 42.28516 10.9375 26.46484 Q8.69141 20.50781 8.20312 19.14062 Q8.20312 17.87109 8.20312 16.79688 Q8.20312 10.44922 9.96094 9.375 Q11.91406 8.10547 20.50781 6.83594 Q27.05078 6.93359 34.96094 8.69141 Q41.30859 10.25391 47.46094 10.25391 Q48.63281 10.25391 49.80469 10.15625 Q49.60938 9.47266 49.60938 8.98438 z" />
<glyph unicode="M" horiz-adv-x="98.82812" d="M94.14062 9.27734 Q92.38281 8.39844 90.72266 8.39844 Q88.76953 8.39844 86.91406 9.96094 Q82.32422 13.76953 75.78125 25.09766 Q73.53516 29.10156 71.48438 29.58984 Q65.42969 21.19141 60.35156 16.11328 Q58.69141 14.45312 56.93359 14.45312 Q53.22266 14.45312 48.82812 21.77734 Q47.94922 25.19531 46.19141 32.03125 Q45.89844 33.49609 45.41016 33.98438 Q45.01953 33.98438 44.23828 33.98438 Q27.14844 8.49609 10.83984 0.58594 Q9.86328 0.58594 7.71484 0.58594 Q6.15234 2.44141 5.56641 5.07812 Q6.44531 5.95703 9.17969 7.12891 Q12.79297 8.78906 13.18359 8.98438 Q23.24219 14.55078 27.92969 18.84766 Q31.15234 21.97266 43.84766 37.40234 Q45.89844 38.76953 47.36328 38.76953 Q48.33984 38.76953 49.12109 38.18359 Q52.73438 35.74219 54.19922 27.53906 Q54.88281 23.63281 55.27344 22.07031 Q56.93359 21.77734 57.42188 21.77734 Q60.25391 26.07422 62.89062 30.37109 Q66.60156 35.05859 70.99609 35.05859 Q74.31641 32.42188 80.46875 23.33984 Q84.76562 17.08984 92.77344 14.45312 Q95.11719 13.37891 95.11719 12.01172 Q95.11719 11.81641 95.11719 11.62109 Q94.72656 10.05859 94.14062 9.27734 z" />
<glyph unicode="N" horiz-adv-x="57.12891" d="M48.53516 17.28516 Q48.53516 10.74219 45.89844 6.34766 Q42.77344 1.17188 36.42578 -4.00391 Q33.88672 -4.88281 31.64062 -4.88281 Q26.85547 -4.88281 23.33984 -1.17188 Q18.06641 4.39453 14.45312 10.25391 Q12.40234 15.23438 9.86328 20.41016 Q8.49609 18.65234 7.42188 13.37891 Q7.12891 10.83984 6.15234 5.66406 Q4.10156 -5.37109 -0.87891 -5.37109 Q-2.14844 -3.51562 -2.14844 -1.95312 Q-2.14844 -0.97656 -1.75781 -0.19531 Q-0.87891 1.46484 1.17188 5.66406 Q2.24609 9.17969 4.88281 17.28516 Q6.15234 21.09375 8.69141 28.80859 Q9.08203 28.80859 10.25391 28.80859 Q12.40234 25.09766 14.94141 17.57812 Q17.38281 10.15625 19.33594 7.32422 Q22.65625 2.44141 28.80859 0.39062 Q39.94141 0.39062 40.72266 6.34766 Q41.21094 10.35156 41.21094 15.23438 Q41.21094 17.87109 41.01562 20.89844 Q39.64844 26.75781 36.52344 33.49609 Q34.66797 37.40234 34.66797 41.30859 Q34.66797 44.14062 35.54688 46.77734 Q36.81641 46.77734 37.40234 46.97266 Q43.06641 41.30859 45.41016 34.27734 Q48.53516 24.80469 48.53516 17.28516 z" />
<glyph unicode="O" horiz-adv-x="59.375" d="M52.14844 20.50781 Q49.90234 12.10938 44.14062 5.76172 Q38.37891 -0.87891 30.37109 -3.61328 Q25.97656 -5.07812 21.48438 -5.07812 Q18.16406 -5.07812 15.03906 -4.39453 Q7.22656 -2.53906 1.07422 4.88281 Q-1.26953 10.74219 -1.26953 15.42969 Q-1.26953 20.41016 1.36719 24.21875 Q6.34766 31.54297 17.08984 34.47266 Q18.16406 34.86328 23.24219 36.81641 Q25.39062 37.69531 27.24609 37.69531 Q28.80859 37.69531 30.17578 37.01172 Q30.17578 29.78516 25.19531 26.75781 Q23.82812 27.73438 23.63281 29.10156 Q23.33984 31.05469 22.85156 31.93359 Q4.58984 30.76172 3.22266 17.38281 Q3.22266 6.83594 9.17969 3.51562 Q13.67188 0.97656 19.14062 0.97656 Q25.97656 0.97656 34.96094 5.07812 Q40.03906 7.42188 43.06641 10.74219 Q47.07031 15.23438 45.3125 19.82422 Q44.14062 22.94922 38.67188 27.53906 Q36.62109 29.10156 36.23047 31.83594 Q36.91406 33.00781 37.98828 33.69141 Q44.43359 33.69141 48.14453 30.37109 Q52.14844 26.85547 52.14844 20.50781 z" />
<glyph unicode="P" horiz-adv-x="61.71875" d="M58.49609 27.24609 Q56.34766 17.08984 41.30859 13.67188 Q36.03516 12.40234 18.35938 11.32812 Q18.35938 0 22.46094 -8.20312 Q22.46094 -8.69141 22.46094 -9.66797 Q20.50781 -11.13281 17.1875 -11.42578 Q12.89062 -7.12891 13.18359 -1.36719 Q13.47656 4.49219 13.47656 10.83984 Q12.10938 11.91406 10.25391 11.91406 Q9.76562 11.91406 8.88672 11.81641 Q8.00781 11.62109 7.61719 11.62109 Q5.66406 11.62109 5.66406 14.45312 Q6.64062 15.03906 9.27734 15.03906 Q10.74219 15.03906 13.67188 15.03906 Q13.76953 17.08984 13.47656 23.63281 Q13.28125 30.07812 14.45312 31.93359 Q18.94531 31.93359 18.94531 27.14844 Q18.94531 26.46484 18.84766 25.58594 Q18.06641 19.23828 18.06641 15.91797 Q19.14062 15.82031 20.99609 15.82031 Q23.63281 15.82031 27.73438 16.01562 Q45.21484 16.79688 52.44141 23.63281 Q54.29688 25.39062 54.29688 27.92969 Q54.29688 30.46875 52.24609 33.69141 Q43.84766 41.21094 28.80859 41.30859 Q13.67188 41.50391 4.98047 36.52344 Q5.07812 33.69141 5.37109 32.22656 Q4.00391 30.85938 2.92969 30.85938 Q1.17188 30.85938 0.09766 34.57031 Q-1.46484 40.52734 -1.66016 42.67578 Q3.80859 48.24219 16.99219 48.33984 Q18.26172 48.33984 19.43359 48.33984 Q30.85938 48.33984 38.18359 47.46094 Q48.53516 43.84766 52.44141 40.82031 Q58.49609 36.03516 58.49609 27.24609 z" />
<glyph unicode="Q" horiz-adv-x="73.24219" d="M66.89453 24.12109 Q65.23438 16.21094 56.93359 10.64453 Q51.46484 7.03125 41.21094 3.41797 Q40.91797 2.73438 40.91797 2.24609 Q43.65234 1.36719 48.92578 -0.68359 Q54.10156 -2.73438 54.58984 -5.85938 Q54.10156 -6.73828 53.125 -8.49609 Q47.94922 -8.49609 43.84766 -3.80859 Q39.35547 1.17188 35.35156 1.66016 Q28.41797 0.09766 22.16797 0.09766 Q19.82422 0.09766 16.99219 0.39062 Q8.49609 1.46484 0.68359 8.39844 Q-0.68359 10.9375 -0.68359 13.67188 Q-0.68359 16.30859 0.87891 19.33594 Q7.22656 31.15234 23.33984 36.91406 Q28.80859 38.96484 33.30078 38.96484 Q34.76562 38.96484 36.13281 38.67188 Q36.13281 35.25391 34.86328 33.49609 Q34.08203 32.42188 30.66406 30.27344 Q30.07812 30.66406 29.49219 32.8125 Q24.90234 32.8125 18.55469 29.78516 Q5.56641 23.73047 2.92969 15.52734 Q2.53906 14.45312 2.53906 13.47656 Q2.53906 10.25391 6.54297 7.42188 Q13.08594 5.27344 19.14062 4.49219 Q20.99609 4.29688 22.85156 4.29688 Q27.44141 4.29688 32.71484 5.37109 Q31.44531 6.83594 30.17578 8.20312 Q29.19922 9.47266 28.90625 11.62109 Q29.29688 12.01172 30.07812 12.98828 Q30.66406 13.67188 31.44531 14.45312 Q31.83594 14.45312 32.42188 14.25781 Q32.8125 14.16016 33.39844 14.16016 Q34.76562 12.01172 37.10938 6.93359 Q42.77344 6.93359 50.58594 11.62109 Q58.69141 16.40625 60.54688 21.48438 Q61.62109 24.41406 61.62109 26.66016 Q61.62109 29.19922 60.35156 30.46875 Q58.10547 32.61719 53.80859 33.69141 Q52.05078 33.98438 46.28906 34.76562 Q42.57812 35.35156 42.08984 38.37891 Q45.41016 39.45312 48.92578 39.45312 Q53.80859 39.45312 58.49609 37.40234 Q66.89453 33.59375 66.89453 24.12109 z" />
<glyph unicode="R" horiz-adv-x="68.55469" d="M66.30859 4.29688 Q65.625 2.44141 65.23438 1.5625 Q61.32812 1.07422 57.71484 1.07422 Q41.01562 1.07422 28.51562 11.32812 Q27.05078 13.37891 27.05078 15.23438 Q27.05078 17.38281 29.29688 19.14062 Q32.22656 21.38672 38.86719 25.09766 Q45.41016 28.71094 48.33984 31.05469 Q50.78125 32.91016 50.78125 35.35156 Q50.78125 37.10938 49.60938 39.16016 Q41.50391 42.08984 33.00781 42.08984 Q29.00391 42.08984 24.90234 41.40625 Q12.10938 39.45312 0.87891 37.01172 Q-2.14844 37.01172 -3.22266 37.79297 Q-3.22266 41.79688 -0.87891 43.06641 Q-0.58594 43.35938 5.17578 44.72656 Q7.8125 44.92188 16.79688 45.70312 Q20.70312 45.99609 25.39062 45.99609 Q31.05469 45.99609 36.03516 45.50781 Q45.70312 44.62891 52.24609 41.30859 Q56.15234 39.16016 56.15234 35.25391 Q56.15234 32.91016 54.6875 29.88281 Q48.53516 26.26953 36.13281 19.04297 Q35.54688 18.06641 35.54688 17.08984 Q35.54688 15.23438 37.69531 13.18359 Q41.40625 9.76562 47.46094 7.51953 Q53.22266 5.37109 58.49609 5.37109 Q62.69531 5.37109 64.64844 7.51953 Q65.23438 7.42188 66.30859 7.42188 Q66.30859 6.34766 66.30859 4.29688 zM15.72266 1.5625 Q15.625 1.07422 15.03906 -0.39062 Q14.16016 -0.58594 13.37891 -0.58594 Q10.74219 3.80859 8.69141 15.03906 Q7.22656 22.55859 7.22656 27.44141 Q7.22656 29.98047 7.61719 31.83594 Q9.66797 31.83594 11.13281 30.66406 Q12.98828 20.89844 15.72266 1.5625 z" />
<glyph unicode="S" horiz-adv-x="34.66797" d="M37.10938 47.36328 Q36.52344 43.35938 35.05859 41.30859 Q33.39844 39.16016 29.6875 38.08594 Q27.44141 37.5 22.75391 36.32812 Q12.59766 30.56641 11.81641 27.44141 Q11.62109 26.85547 11.62109 26.17188 Q11.62109 22.75391 14.94141 15.03906 Q15.82031 12.10938 15.82031 9.57031 Q15.82031 4.49219 12.40234 1.26953 Q7.32422 -3.51562 -0.19531 -6.05469 Q-0.78125 -5.37109 -0.78125 -4.19922 Q8.69141 2.63672 10.54688 8.98438 Q10.83984 10.35156 10.83984 12.10938 Q10.83984 17.77344 6.15234 25.97656 Q5.46875 27.73438 5.46875 29.10156 Q5.46875 31.64062 7.61719 33.39844 Q11.03516 36.13281 16.79688 38.86719 Q19.92188 40.33203 26.46484 43.35938 Q31.64062 45.99609 33.88672 50.87891 Q34.96094 50.87891 35.54688 50.97656 Q36.91406 48.92578 37.10938 47.36328 z" />
<glyph unicode="T" horiz-adv-x="57.32422" d="M61.32812 43.55469 Q56.15234 37.89062 45.70312 36.52344 Q45.50781 36.42578 27.83203 34.47266 Q27.44141 32.12891 27.44141 29.58984 Q27.44141 24.80469 29.00391 18.94531 Q31.54297 10.35156 31.54297 3.41797 Q29.6875 1.5625 29.29688 1.26953 Q28.32031 0.68359 26.36719 0.58594 Q23.73047 4.29688 23.53516 16.21094 Q23.53516 16.21094 23.33984 33.39844 Q17.87109 32.91016 -1.95312 29.00391 Q-1.17188 32.71484 8.98438 34.76562 Q13.57422 35.54688 22.75391 37.20703 Q22.36328 41.01562 22.26562 42.28516 Q22.26562 43.55469 22.55859 46.97266 Q22.85156 47.26562 23.53516 47.26562 Q24.12109 47.26562 24.80469 47.07031 Q25.39062 44.33594 27.14844 38.67188 Q38.08594 38.67188 59.27734 47.07031 Q61.03516 45.70312 61.32812 43.55469 z" />
<glyph unicode="U" horiz-adv-x="53.125" d="M43.75 34.17969 Q43.75 33.98438 43.75 33.88672 Q43.75 28.02734 40.13672 19.92188 Q32.91016 3.51562 20.11719 2.83203 Q19.82422 2.83203 19.43359 2.83203 Q13.18359 2.83203 6.34766 9.57031 Q3.125 17.57812 1.66016 25.68359 Q1.17188 27.73438 1.17188 29.6875 Q1.17188 35.83984 4.49219 42.28516 Q6.15234 43.75 7.42188 43.65234 Q8.59375 43.55469 8.98438 40.52734 Q8.78906 36.62109 8.00781 30.56641 Q7.71484 27.14844 7.71484 24.12109 Q7.71484 21.38672 8.00781 18.16406 Q8.78906 12.40234 11.81641 8.78906 Q13.86719 6.54297 17.38281 6.54297 Q19.62891 6.54297 22.46094 7.51953 Q32.71484 11.13281 37.30469 22.26562 Q40.52734 30.27344 41.01562 43.55469 Q40.23438 46.19141 40.23438 50.09766 Q40.91797 50.29297 41.60156 50.87891 Q43.55469 48.92578 43.65234 42.28516 Q43.65234 39.55078 43.75 34.17969 z" />
<glyph unicode="V" horiz-adv-x="55.66406" d="M45.41016 30.66406 Q45.41016 30.56641 45.41016 30.46875 Q45.41016 23.14453 37.69531 13.18359 Q29.39453 2.44141 21.97266 2.44141 Q20.99609 3.71094 14.25781 15.23438 Q11.03516 20.80078 6.54297 27.92969 Q4.19922 31.64062 0.87891 36.03516 Q-1.46484 39.16016 -1.46484 41.60156 Q-1.46484 43.35938 -0.39062 44.62891 Q4.88281 44.62891 7.42188 40.42969 Q8.88672 37.40234 11.62109 31.34766 Q12.98828 28.41797 17.08984 19.43359 Q18.35938 16.60156 21.77734 9.47266 Q22.07031 9.08203 23.33984 6.93359 Q24.80469 6.64062 25.09766 6.64062 Q32.91016 13.57422 34.57031 15.91797 Q38.37891 20.89844 38.86719 28.32031 Q38.18359 32.12891 37.30469 36.52344 Q37.01172 37.89062 37.01172 38.96484 Q37.01172 42.08984 38.86719 44.62891 Q43.35938 44.62891 44.72656 39.64844 Q45.41016 37.20703 45.41016 30.66406 z" />
<glyph unicode="W" horiz-adv-x="76.85547" d="M71.77734 27.24609 Q67.87109 15.03906 59.76562 15.03906 Q59.17969 15.03906 58.10547 15.23438 Q48.63281 16.50391 40.23438 21.48438 Q38.37891 24.31641 35.83984 24.31641 Q34.375 24.31641 32.61719 23.24219 Q24.31641 13.57422 16.01562 9.08203 Q11.42578 6.54297 7.12891 6.54297 Q6.83594 6.54297 6.44531 6.54297 Q1.95312 6.73828 -0.68359 12.69531 Q-0.68359 20.60547 2.24609 30.85938 Q6.05469 43.65234 11.71875 43.65234 Q12.10938 43.65234 12.59766 43.65234 Q13.37891 42.08984 13.37891 40.42969 Q13.37891 38.67188 12.5 36.91406 Q8.78906 31.25 4.19922 23.14453 Q3.22266 21.28906 3.22266 19.33594 Q3.22266 17.77344 3.80859 16.30859 Q7.32422 13.67188 10.83984 13.67188 Q15.42969 13.67188 20.41016 16.89453 Q24.02344 19.14062 34.76562 29.29688 Q36.23047 29.49219 38.67188 29.58984 Q45.21484 20.60547 53.51562 20.21484 Q61.81641 19.72656 66.21094 25.39062 Q68.35938 29.29688 68.35938 32.91016 Q68.35938 35.35156 67.48047 37.59766 Q65.13672 43.35938 60.05859 48.82812 Q60.05859 49.21875 60.35156 51.17188 Q60.64453 51.36719 61.13281 51.66016 Q66.01562 48.63281 69.04297 40.72266 Q71.77734 33.69141 71.77734 27.24609 z" />
<glyph unicode="X" horiz-adv-x="62.98828" d="M67.1875 43.06641 Q66.79688 42.57812 65.91797 41.30859 Q61.32812 39.84375 50.48828 33.69141 Q45.41016 30.85938 35.35156 25.19531 Q35.35156 24.90234 35.35156 24.02344 Q42.08984 20.3125 47.75391 15.82031 Q55.85938 9.47266 56.34766 5.07812 Q54.88281 4.78516 54.58984 4.78516 Q50.39062 10.54688 43.94531 14.94141 Q39.35547 18.06641 30.95703 21.97266 Q25.97656 19.72656 20.50781 15.72266 Q18.35938 14.0625 10.83984 8.30078 Q7.12891 4.10156 4.00391 2.05078 Q3.02734 1.36719 1.75781 1.36719 Q-0.39062 1.36719 -3.02734 3.80859 Q-2.24609 8.00781 8.69141 14.16016 Q13.08594 16.30859 24.31641 22.26562 Q24.31641 22.55859 24.60938 24.41406 Q16.01562 26.75781 9.27734 29.49219 Q-0.29297 33.20312 -0.29297 39.64844 Q1.66016 41.30859 3.71094 42.87109 Q4.29688 43.35938 5.27344 43.35938 Q6.64062 43.35938 8.78906 42.08984 Q11.32812 38.18359 19.92188 32.42188 Q27.53906 27.24609 32.03125 27.24609 Q32.51953 27.24609 32.91016 27.24609 Q35.15625 28.51562 39.45312 31.05469 Q44.33594 33.78906 51.36719 37.40234 Q54.88281 39.25781 62.10938 43.06641 Q63.08594 44.92188 64.16016 47.26562 Q64.74609 47.26562 65.52734 47.55859 Q66.79688 46.19141 67.1875 43.06641 z" />
<glyph unicode="Y" horiz-adv-x="49.12109" d="M41.50391 32.61719 Q40.82031 30.46875 39.35547 25.39062 Q38.67188 22.94922 37.30469 18.16406 Q36.71875 15.42969 36.71875 12.79297 Q36.71875 8.49609 38.28125 4.39453 Q39.0625 2.34375 39.0625 0.48828 Q39.0625 -2.92969 36.03516 -4.78516 Q31.54297 -4.00391 31.15234 1.66016 Q31.05469 2.92969 31.05469 4.58984 Q31.05469 8.98438 31.93359 14.25781 Q32.42188 17.28516 34.76562 25.87891 Q36.81641 33.39844 37.10938 37.59766 Q33.20312 37.10938 29.10156 35.15625 Q26.07422 33.69141 23.04688 32.12891 Q19.43359 30.56641 16.40625 30.56641 Q11.91406 30.56641 6.44531 35.05859 Q5.27344 36.42578 2.73438 39.25781 Q-0.87891 43.55469 -0.87891 45.99609 Q-0.87891 46.97266 -0.39062 47.75391 Q0.58594 49.41406 5.66406 49.41406 Q7.22656 47.46094 8.98438 43.84766 Q10.74219 39.94141 11.81641 38.18359 Q14.16016 34.17969 20.70312 34.17969 Q21.77734 34.17969 23.14453 34.27734 Q27.14844 36.13281 35.25391 39.74609 Q37.10938 40.52734 38.67188 40.91797 Q40.52734 39.45312 41.21094 37.10938 Q41.40625 36.23047 41.50391 32.61719 z" />
<glyph unicode="Z" horiz-adv-x="65.625" d="M61.13281 18.16406 Q45.41016 9.57031 32.91016 6.05469 Q24.90234 3.71094 17.48047 3.61328 Q17.1875 3.61328 16.89453 3.61328 Q9.76562 3.61328 4.78516 7.42188 Q4.10156 8.69141 4.10156 10.15625 Q4.10156 14.45312 16.40625 25.68359 Q19.72656 28.71094 26.26953 34.76562 Q29.00391 37.40234 29.00391 39.35547 Q29.00391 40.42969 28.125 41.30859 Q25.68359 41.21094 18.84766 39.35547 Q10.83984 37.20703 8.98438 36.91406 Q5.56641 36.32812 2.83203 36.32812 Q-2.05078 36.32812 -2.05078 38.18359 Q-2.05078 39.45312 0 41.99219 Q18.84766 45.21484 28.80859 45.21484 Q32.12891 43.55469 32.12891 40.82031 Q32.12891 39.74609 31.44531 38.37891 Q28.51562 32.32422 15.72266 19.43359 Q11.13281 14.74609 11.13281 12.01172 Q14.45312 8.69141 20.80078 8.69141 Q32.42188 8.98438 47.75391 15.23438 Q54.10156 17.87109 58.39844 19.92188 Q59.27734 19.82422 61.13281 19.82422 Q61.13281 19.33594 61.13281 18.16406 z" />
<glyph unicode="\" horiz-adv-x="40.625" d="M-2.83203 58.69141 Q-2.83203 60.25391 -1.75781 60.9375 Q2.73438 56.34766 7.61719 46.67969 Q9.08203 43.65234 14.74609 30.66406 Q19.14062 20.50781 21.97266 15.52734 Q27.14844 6.64062 32.51953 3.02734 Q32.51953 -0.09766 32.32422 -0.97656 Q31.93359 -2.73438 30.37109 -4.49219 Q29.00391 -4.49219 26.46484 -4.49219 Q25.39062 -2.73438 23.63281 1.17188 Q22.55859 3.71094 19.92188 10.35156 Q16.50391 18.84766 12.69531 27.92969 Q12.30469 29.00391 4.98047 43.26172 Q2.34375 48.4375 -2.83203 58.69141 z" />
<glyph unicode="a" horiz-adv-x="63.96484" d="M55.56641 7.71484 Q52.73438 4.88281 50.97656 4.88281 Q49.31641 4.88281 47.46094 7.51953 Q46.19141 9.27734 44.33594 11.13281 Q43.16406 12.40234 41.40625 12.40234 Q40.23438 12.40234 39.25781 12.01172 Q35.54688 10.54688 28.22266 5.85938 Q20.41016 0.87891 17.08984 -0.68359 Q10.25391 -3.80859 4.78516 -3.90625 Q4.6875 -3.90625 4.58984 -3.90625 Q1.66016 -3.90625 -0.09766 -1.46484 Q-1.66016 0.78125 -1.66016 3.90625 Q-1.66016 9.27734 7.22656 15.82031 Q15.91797 22.26562 21.97266 22.26562 Q22.55859 22.26562 23.33984 22.16797 Q24.12109 20.99609 24.31641 18.75 Q22.26562 16.01562 18.45703 14.64844 Q16.11328 13.96484 11.52344 12.40234 Q3.22266 9.76562 3.51562 3.02734 Q5.07812 0.78125 7.51953 0.78125 Q8.98438 0.78125 10.54688 1.46484 Q15.23438 3.32031 21.77734 7.42188 Q25.29297 9.76562 32.42188 14.25781 Q37.30469 17.1875 41.50391 17.1875 Q42.1875 17.1875 42.87109 17.08984 Q50.09766 14.35547 50.87891 13.96484 Q55.56641 11.32812 55.56641 7.71484 z" />
<glyph unicode="b" horiz-adv-x="59.76562" d="M50.87891 11.91406 Q48.82812 6.64062 42.77344 3.22266 Q36.03516 -0.58594 28.22266 -0.58594 Q23.53516 -0.58594 19.14062 1.07422 Q13.47656 3.22266 11.32812 9.27734 Q9.47266 20.99609 7.8125 32.8125 Q6.34766 43.55469 -1.17188 56.15234 Q-2.24609 58.10547 -2.24609 59.76562 Q-2.24609 61.81641 -0.68359 63.37891 Q0.87891 64.94141 2.92969 64.94141 Q4.39453 64.94141 5.85938 63.67188 Q12.30469 57.22656 12.89062 44.23828 Q12.89062 37.01172 12.98828 22.55859 Q13.18359 12.30469 17.57812 6.64062 Q19.53125 4.00391 23.92578 4.00391 Q29.00391 4.00391 37.10938 7.42188 Q41.50391 10.54688 43.94531 13.67188 Q44.82422 14.84375 44.82422 16.30859 Q44.82422 18.94531 41.79688 22.46094 Q40.91797 23.53516 39.25781 23.53516 Q38.08594 23.53516 36.52344 23.04688 Q34.375 22.16797 30.17578 20.60547 Q25.87891 18.94531 23.63281 19.23828 Q21.97266 19.43359 21.97266 21.97266 Q21.97266 23.04688 22.26562 24.41406 Q24.02344 28.32031 29.29688 29.00391 Q30.37109 29.19922 32.12891 29.19922 Q36.03516 29.19922 39.94141 27.92969 Q45.21484 25.97656 48.92578 21.875 Q51.46484 19.04297 51.46484 15.33203 Q51.46484 13.67188 50.87891 11.91406 z" />
<glyph unicode="c" horiz-adv-x="42.77344" d="M36.91406 20.89844 Q33.78906 17.67578 30.66406 17.67578 Q29.78516 17.67578 29.00391 17.87109 Q24.60938 19.14062 18.26172 18.26172 Q12.01172 17.38281 6.83594 12.59766 Q2.44141 8.59375 2.44141 3.61328 Q2.44141 2.63672 2.44141 2.14844 Q2.92969 0 6.83594 -0.58594 Q10.83984 -1.17188 11.42578 -4.00391 Q7.22656 -6.44531 4.10156 -6.44531 Q-1.17188 -6.44531 -3.22266 0.58594 Q-2.34375 13.18359 9.47266 20.70312 Q19.62891 27.05078 32.22656 27.05078 Q32.8125 27.05078 33.30078 27.05078 Q37.98828 26.95312 38.08594 24.80469 Q38.08594 22.94922 36.91406 20.89844 z" />
<glyph unicode="d" horiz-adv-x="50.97656" d="M43.35938 20.80078 Q41.30859 11.52344 33.78906 5.95703 Q26.66016 0.68359 17.1875 0.68359 Q16.99219 0.68359 16.79688 0.68359 Q8.98438 0.68359 4.00391 5.27344 Q1.17188 7.71484 1.17188 11.32812 Q1.17188 14.0625 2.92969 17.57812 Q6.34766 22.55859 12.40234 25.68359 Q18.35938 28.61328 24.60938 28.61328 Q26.75781 25.87891 26.75781 24.12109 Q26.75781 23.33984 26.36719 22.65625 Q24.21875 19.04297 15.42969 17.28516 Q11.81641 16.60156 10.35156 15.82031 Q8.00781 15.03906 6.83594 11.81641 Q6.64062 7.91016 8.10547 5.66406 Q9.76562 3.22266 13.57422 3.32031 Q20.50781 3.51562 27.44141 5.85938 Q37.89062 12.20703 37.69531 24.90234 Q37.5 37.59766 30.76172 48.24219 Q27.92969 50.09766 22.55859 50.97656 Q16.50391 52.05078 14.94141 52.73438 Q11.42578 54.29688 10.83984 58.20312 Q10.35156 60.74219 11.52344 61.62109 Q12.40234 62.30469 15.03906 62.59766 Q25.68359 62.59766 35.05859 46.67969 Q43.35938 32.22656 43.35938 20.80078 z" />
<glyph unicode="e" horiz-adv-x="36.42578" d="M29.10156 25.09766 Q26.75781 19.82422 22.36328 15.42969 Q17.28516 10.35156 12.40234 9.66797 Q11.42578 10.54688 11.42578 11.42578 Q11.42578 12.01172 11.81641 12.59766 Q15.13672 15.91797 18.35938 19.43359 Q19.92188 21.38672 19.62891 24.12109 Q14.74609 23.53516 10.44922 19.92188 Q5.85938 15.82031 5.85938 11.03516 Q8.20312 5.07812 15.03906 1.36719 Q19.33594 -0.39062 27.92969 -4.00391 Q27.83203 -4.58984 27.83203 -5.85938 Q15.52734 -5.27344 8.39844 -0.97656 Q4.29688 1.46484 2.44141 5.56641 Q1.75781 7.12891 1.75781 8.98438 Q1.75781 12.01172 3.51562 15.72266 Q4.00391 18.06641 7.8125 21.67969 Q14.94141 28.51562 21.77734 29.98047 Q22.75391 30.17578 23.63281 30.17578 Q26.66016 30.17578 29.00391 27.92969 Q29.49219 26.85547 29.49219 26.07422 Q29.49219 25.39062 29.10156 25.09766 z" />
<glyph unicode="f" horiz-adv-x="43.84766" d="M45.70312 25.39062 Q45.50781 24.90234 33.30078 21.97266 Q30.37109 21.28906 24.60938 19.92188 Q20.80078 19.14062 20.11719 18.94531 Q20.11719 13.67188 21.97266 6.93359 Q23.24219 3.02734 25.48828 -4.78516 Q27.63672 -12.59766 27.63672 -18.26172 Q27.63672 -23.14453 25.09766 -26.95312 Q23.82812 -27.24609 23.24219 -27.24609 Q17.28516 -17.28516 11.62109 -15.03906 Q11.52344 -14.25781 11.52344 -12.40234 Q14.45312 -12.59766 16.79688 -13.96484 Q18.65234 -15.03906 21.28906 -15.03906 Q22.07031 -15.03906 22.85156 -14.94141 Q22.55859 -7.71484 20.50781 3.02734 Q18.06641 16.30859 16.01562 17.57812 Q13.96484 17.28516 8.20312 15.52734 Q6.44531 14.35547 2.83203 12.10938 Q-0.78125 10.05859 -3.02734 10.05859 Q-3.90625 10.05859 -4.78516 10.35156 Q-6.44531 11.13281 -6.44531 14.94141 Q-2.92969 18.35938 3.71094 18.94531 Q7.42188 19.33594 15.03906 20.11719 Q15.03906 24.70703 12.89062 31.34766 Q10.05859 40.23438 9.57031 42.57812 Q9.27734 44.62891 9.27734 46.48438 Q9.27734 49.90234 10.35156 53.32031 Q12.20703 58.49609 20.11719 63.57422 Q22.85156 64.64844 26.95312 64.94141 Q28.32031 65.13672 29.49219 65.13672 Q36.13281 65.13672 36.81641 61.81641 Q37.20703 59.76562 32.8125 55.85938 Q30.07812 55.85938 28.22266 56.34766 Q27.53906 56.64062 24.12109 58.20312 Q13.08594 58.20312 13.08594 45.11719 Q13.08594 37.10938 18.06641 21.67969 Q18.94531 21.58203 19.82422 21.58203 Q24.41406 21.58203 31.93359 25.58594 Q39.45312 29.58984 43.45703 29.58984 Q44.43359 29.58984 45.41016 29.49219 Q46.97266 28.41797 46.97266 27.53906 Q46.97266 27.53906 46.97266 27.44141 Q46.97266 27.34375 46.97266 27.24609 Q46.77734 26.36719 45.70312 25.39062 z" />
<glyph unicode="g" horiz-adv-x="40.52734" d="M33.69141 -23.63281 Q33.69141 -28.22266 29.6875 -33.00781 Q21.48438 -42.87109 13.37891 -42.87109 Q9.76562 -42.87109 9.76562 -38.67188 Q12.89062 -35.54688 16.99219 -34.76562 Q19.04297 -34.375 23.33984 -33.59375 Q26.66016 -32.22656 29.19922 -27.44141 Q31.05469 -20.99609 31.05469 -13.18359 Q31.05469 -10.44922 30.76172 -7.32422 Q29.88281 4.00391 25.58594 12.79297 Q23.92578 12.79297 21.19141 10.9375 Q18.06641 8.98438 16.60156 8.69141 Q12.89062 7.91016 8.69141 8.30078 Q-0.29297 9.17969 -0.78125 15.23438 Q-0.78125 15.42969 -0.78125 15.625 Q-0.78125 18.75 2.73438 23.04688 Q5.76172 26.75781 16.40625 29.29688 Q20.3125 30.27344 24.02344 30.27344 Q24.41406 30.27344 24.70703 30.27344 Q28.61328 30.07812 30.17578 28.02734 Q27.44141 24.02344 23.53516 23.92578 Q21.77734 23.82812 18.75 24.12109 Q15.52734 24.21875 13.96484 24.21875 Q11.32812 24.21875 9.08203 23.4375 Q6.15234 22.46094 5.56641 16.50391 Q7.12891 11.62109 11.32812 11.62109 Q13.08594 11.62109 15.23438 12.5 Q22.65625 15.52734 27.05078 18.94531 Q28.32031 18.94531 28.80859 18.65234 Q29.58984 17.87109 30.17578 17.28516 Q30.46875 7.32422 31.93359 -3.51562 Q33.59375 -15.625 33.69141 -23.63281 z" />
<glyph unicode="h" horiz-adv-x="58.10547" d="M51.95312 1.36719 Q49.60938 -2.73438 47.46094 -2.73438 Q46.97266 -2.73438 46.48438 -2.53906 Q41.50391 -0.39062 38.08594 10.05859 Q36.71875 13.96484 36.13281 15.42969 Q33.10547 17.87109 30.17578 17.87109 Q28.125 17.87109 26.17188 16.79688 Q23.04688 14.94141 16.99219 9.76562 Q11.03516 4.88281 7.71484 3.02734 Q6.34766 2.24609 4.98047 2.24609 Q2.05078 2.24609 -0.68359 6.05469 Q-1.26953 8.49609 -1.26953 11.32812 Q-1.26953 13.86719 -0.87891 16.11328 Q-0.39062 19.14062 0.39062 26.95312 Q0.87891 34.57031 2.44141 52.92969 Q3.02734 58.49609 5.46875 58.49609 Q7.03125 58.49609 9.27734 55.66406 Q9.47266 54.39453 9.47266 53.125 Q9.47266 47.75391 6.34766 38.08594 Q3.22266 28.02734 3.02734 23.04688 Q2.83203 14.55078 4.10156 9.96094 Q4.49219 8.49609 6.15234 8.49609 Q8.78906 8.49609 14.64844 11.91406 Q20.01953 17.08984 26.36719 21.28906 Q28.41797 22.75391 30.56641 22.75391 Q34.86328 22.75391 39.45312 17.28516 Q40.625 14.64844 43.06641 9.375 Q45.11719 6.05469 49.51172 5.85938 Q50.58594 4.88281 51.85547 4.00391 Q51.85547 2.24609 51.95312 1.36719 z" />
<glyph unicode="i" horiz-adv-x="28.32031" d="M18.84766 10.74219 Q17.08984 8.39844 16.50391 8.39844 Q16.30859 8.30078 16.11328 8.30078 Q15.42969 8.30078 14.16016 8.49609 Q12.01172 11.62109 11.81641 17.57812 Q11.71875 20.89844 11.52344 27.34375 Q12.40234 27.34375 12.89062 27.44141 Q14.16016 24.80469 16.60156 19.14062 Q18.84766 13.96484 18.84766 10.74219 zM10.35156 43.65234 Q7.42188 40.72266 4.78516 40.72266 Q2.92969 40.72266 1.26953 42.08984 Q-0.39062 43.45703 -0.39062 45.21484 Q-0.39062 46.97266 1.46484 49.12109 Q2.53906 49.90234 4.00391 50.87891 Q4.88281 51.46484 5.85938 51.46484 Q6.64062 51.46484 7.61719 50.97656 Q7.61719 50.48828 7.61719 49.41406 Q5.95703 47.85156 5.56641 47.36328 Q5.37109 46.97266 5.37109 46.48438 Q5.37109 46.19141 5.46875 45.70312 Q6.83594 45.60547 9.47266 45.41016 Q10.54688 44.04297 10.35156 43.65234 z" />
<glyph unicode="j" horiz-adv-x="26.07422" d="M17.38281 -16.79688 Q16.50391 -25.39062 15.03906 -29.49219 Q12.30469 -36.62109 6.34766 -37.30469 Q4.10156 -36.23047 4.10156 -34.57031 Q4.10156 -32.8125 6.83594 -29.00391 Q8.10547 -27.05078 10.83984 -23.14453 Q12.98828 -20.01953 13.37891 -16.79688 Q13.37891 -14.16016 13.37891 -11.52344 Q13.37891 -6.15234 13.57422 -0.87891 Q13.96484 8.00781 11.62109 16.01562 Q10.05859 21.28906 8.39844 24.80469 Q7.61719 26.46484 7.61719 27.34375 Q8.69141 27.92969 9.76562 27.92969 Q15.23438 18.16406 16.01562 5.76172 Q16.50391 -1.75781 17.38281 -16.79688 zM16.50391 51.75781 Q15.52734 49.90234 15.52734 48.04688 Q15.52734 47.55859 15.625 46.875 Q15.72266 46.19141 15.72266 45.70312 Q15.72266 44.43359 15.23438 43.84766 Q12.20703 42.48047 11.03516 42.28516 Q9.86328 42.1875 8.69141 45.21484 Q8.69141 47.26562 12.59766 51.36719 Q14.64844 53.41797 15.72266 53.41797 Q16.50391 53.41797 16.50391 51.75781 z" />
<glyph unicode="k" horiz-adv-x="50.68359" d="M45.50781 0 Q39.25781 0 23.73047 6.15234 Q6.34766 13.18359 6.34766 18.65234 Q15.42969 25.97656 24.70703 32.91016 Q29.78516 36.62109 36.03516 39.55078 Q39.35547 41.11328 41.89453 41.11328 Q43.35938 41.11328 44.62891 40.52734 Q44.62891 35.44922 38.18359 32.42188 Q34.08203 30.46875 25.68359 26.46484 Q19.43359 23.4375 16.79688 19.82422 Q16.11328 18.84766 16.11328 17.67578 Q16.11328 14.45312 21.67969 9.96094 Q23.04688 8.78906 28.02734 8.20312 Q33.39844 7.61719 36.62109 7.03125 Q41.79688 6.05469 44.72656 4.49219 Q46.48438 3.61328 46.48438 2.24609 Q46.48438 1.26953 45.50781 0 zM6.34766 52.73438 Q6.05469 36.03516 5.07812 15.23438 Q4.58984 2.24609 0.68359 2.24609 Q0.39062 2.24609 0.09766 2.34375 Q1.17188 10.54688 2.83203 26.75781 Q2.44141 49.12109 0.09766 65.23438 Q-1.17188 65.625 -2.73438 66.50391 Q-2.92969 67.38281 -2.92969 68.16406 Q-2.92969 70.11719 -2.14844 71.48438 Q-1.07422 73.53516 3.51562 73.53516 Q6.54297 69.92188 6.34766 63.18359 Q6.34766 60.15625 6.34766 52.73438 z" />
<glyph unicode="l" horiz-adv-x="14.35547" d="M8.98438 65.03906 Q3.125 54.00391 3.125 40.82031 Q3.125 39.55078 3.22266 37.59766 Q3.80859 24.90234 3.90625 9.66797 Q3.90625 7.42188 4.49219 3.02734 Q4.58984 1.95312 4.58984 1.17188 Q4.58984 -1.07422 3.90625 -2.73438 Q2.44141 -3.02734 1.46484 -3.02734 Q0.19531 -1.5625 0.09766 2.92969 Q-0.09766 5.07812 -0.09766 7.32422 Q-0.09766 13.67188 0.68359 23.33984 Q0.78125 23.82812 0.87891 24.80469 Q1.17188 28.51562 1.17188 31.34766 Q0.78125 36.81641 -0.58594 47.46094 Q-0.87891 50.09766 -0.87891 52.53906 Q-0.87891 59.375 1.95312 63.96484 Q2.24609 64.16016 5.66406 66.21094 Q6.93359 66.99219 7.71484 66.99219 Q8.98438 66.99219 8.98438 65.03906 z" />
<glyph unicode="m" horiz-adv-x="82.91016" d="M75.97656 12.59766 Q69.82422 6.83594 65.33203 6.83594 Q63.37891 6.83594 61.81641 7.91016 Q56.34766 11.52344 50.09766 19.33594 Q47.26562 18.94531 45.11719 17.38281 Q43.06641 15.625 41.01562 13.96484 Q39.74609 12.98828 38.47656 12.98828 Q36.52344 12.98828 33.78906 17.28516 Q32.61719 20.41016 32.03125 21.38672 Q30.85938 23.53516 29.10156 24.80469 Q25.87891 24.12109 20.70312 20.01953 Q19.92188 19.43359 13.18359 13.37891 Q9.17969 9.76562 5.66406 7.42188 Q3.71094 6.05469 2.24609 6.05469 Q1.26953 6.05469 0.58594 6.73828 Q-0.39062 7.42188 -0.39062 8.69141 Q-0.39062 9.57031 0.19531 11.32812 Q2.24609 13.67188 7.12891 16.21094 Q9.66797 17.57812 14.74609 20.11719 Q18.45703 23.24219 26.17188 29.10156 Q27.73438 29.58984 29.00391 29.58984 Q32.71484 29.58984 33.78906 25.78125 Q35.35156 20.50781 37.30469 16.60156 Q39.45312 17.08984 42.57812 20.89844 Q45.70312 24.51172 50.09766 25.09766 Q56.34766 21.19141 58.49609 15.42969 Q60.25391 10.44922 66.50391 10.44922 Q67.57812 10.44922 68.75 10.54688 Q70.50781 11.03516 73.33984 14.45312 Q74.31641 15.72266 74.90234 15.72266 Q75.97656 15.72266 75.97656 12.59766 z" />
<glyph unicode="n" horiz-adv-x="61.32812" d="M51.5625 6.05469 Q51.17188 5.66406 50.58594 5.27344 Q48.24219 6.93359 44.72656 11.71875 Q41.79688 16.01562 38.18359 17.87109 Q31.73828 18.06641 26.66016 16.21094 Q23.33984 14.94141 18.06641 11.62109 Q11.91406 7.61719 8.20312 5.85938 Q7.42188 5.85938 5.85938 5.85938 Q3.02734 8.69141 1.17188 14.0625 Q-0.39062 18.94531 -0.39062 23.53516 Q0 23.73047 0.87891 24.12109 Q1.66016 24.41406 3.61328 24.41406 Q5.56641 22.46094 6.83594 19.43359 Q7.42188 17.48047 8.78906 13.67188 Q10.9375 13.76953 16.79688 17.57812 Q23.53516 21.77734 26.95312 22.75391 Q28.80859 23.04688 30.66406 23.04688 Q37.20703 23.04688 42.57812 19.72656 Q49.41406 15.42969 51.5625 6.05469 z" />
<glyph unicode="o" horiz-adv-x="41.30859" d="M32.71484 16.79688 Q30.27344 10.83984 24.02344 6.54297 Q17.77344 2.24609 11.23047 2.24609 Q8.78906 2.24609 6.34766 3.125 Q1.85547 4.58984 0.39062 9.86328 Q0.39062 16.99219 5.66406 21.38672 Q10.54688 25.58594 17.87109 25.58594 Q19.82422 23.53516 20.01953 21.67969 Q19.43359 19.14062 13.28125 17.77344 Q7.12891 16.30859 6.44531 13.37891 Q6.44531 8.20312 12.01172 7.71484 Q12.69531 7.71484 13.37891 7.71484 Q18.65234 7.71484 23.24219 10.35156 Q28.02734 13.18359 29.98047 17.87109 Q30.46875 19.04297 30.46875 20.21484 Q30.46875 24.12109 25.09766 28.51562 Q21.19141 30.17578 18.94531 31.44531 Q18.75 32.12891 18.75 32.8125 Q26.36719 32.8125 30.37109 28.32031 Q33.20312 25.29297 33.20312 20.89844 Q33.20312 18.94531 32.71484 16.79688 z" />
<glyph unicode="p" horiz-adv-x="45.21484" d="M35.25391 13.18359 Q34.76562 10.25391 31.34766 7.71484 Q28.51562 5.56641 25.19531 4.58984 Q23.4375 4.00391 21.875 4.00391 Q20.21484 4.00391 18.55469 4.58984 Q15.42969 5.66406 14.64844 10.44922 Q15.03906 10.83984 15.72266 11.32812 Q21.19141 9.86328 25.39062 8.00781 Q26.17188 7.71484 26.66016 7.71484 Q29.98047 7.71484 31.05469 17.08984 Q29.49219 19.92188 27.44141 20.99609 Q26.26953 21.58203 22.26562 22.65625 Q11.03516 22.65625 8.49609 16.30859 Q6.73828 12.10938 6.73828 7.22656 Q6.73828 4.49219 7.32422 1.17188 Q8.49609 -5.17578 12.01172 -14.74609 Q16.30859 -26.17188 17.38281 -30.27344 Q17.57812 -33.98438 17.57812 -36.52344 Q17.57812 -39.64844 14.45312 -40.23438 Q10.54688 -36.32812 9.47266 -26.95312 Q9.27734 -24.60938 8.10547 -12.01172 Q3.02734 -0.19531 3.02734 9.27734 Q3.02734 10.15625 3.02734 11.03516 Q3.51562 21.19141 20.3125 26.46484 Q35.25391 26.46484 35.25391 13.18359 z" />
<glyph unicode="q" horiz-adv-x="66.01562" d="M58.78906 -1.46484 Q47.07031 -15.82031 41.01562 -33.69141 Q40.625 -33.69141 39.94141 -33.69141 Q35.83984 -29.29688 34.27734 -25.09766 Q33.39844 -22.75391 31.93359 -15.13672 Q31.44531 -9.57031 30.76172 2.92969 Q30.46875 8.78906 29.78516 15.23438 Q29.00391 15.03906 27.53906 15.03906 Q22.85156 7.12891 17.28516 4.00391 Q14.55078 2.44141 11.32812 2.44141 Q7.51953 2.44141 3.02734 4.39453 Q0.39062 5.56641 -0.58594 8.00781 Q-0.97656 9.27734 -1.46484 13.18359 Q-0.39062 19.92188 4.78516 21.97266 Q7.51953 23.14453 13.18359 23.14453 Q14.64844 23.14453 16.21094 23.04688 Q17.48047 20.89844 17.48047 19.72656 Q12.10938 16.50391 7.22656 16.21094 Q4.00391 15.91797 4.00391 12.20703 Q4.00391 10.54688 4.6875 8.10547 Q8.49609 4.29688 11.81641 4.29688 Q14.74609 4.29688 17.38281 7.12891 Q23.14453 13.37891 27.05078 19.53125 Q29.39453 21.28906 32.61719 21.77734 Q35.83984 22.26562 37.59766 18.06641 Q37.59766 13.47656 36.62109 5.66406 Q35.54688 -3.90625 35.25391 -6.64062 Q35.15625 -9.08203 35.15625 -11.81641 Q35.15625 -15.72266 35.54688 -19.53125 Q36.32812 -25.58594 39.45312 -28.80859 Q41.60156 -27.14844 43.55469 -20.99609 Q44.33594 -17.96875 46.09375 -12.10938 Q50.19531 1.46484 57.32422 2.44141 Q58.88672 0.39062 58.88672 -1.17188 Q58.88672 -1.36719 58.78906 -1.46484 z" />
<glyph unicode="r" horiz-adv-x="67.48047" d="M61.13281 17.77344 Q58.98438 15.13672 57.12891 15.13672 Q56.34766 15.13672 55.56641 15.52734 Q53.125 16.89453 49.80469 18.35938 Q39.74609 18.35938 29.78516 12.89062 Q29.78516 12.89062 11.81641 2.44141 Q4.88281 2.44141 2.34375 6.93359 Q0.68359 9.96094 -0.09766 17.77344 Q1.17188 20.41016 2.73438 21.09375 Q3.71094 21.48438 7.12891 21.48438 Q9.27734 19.62891 9.27734 16.79688 Q9.27734 15.82031 8.88672 14.16016 Q8.59375 12.40234 8.59375 11.62109 Q8.59375 9.375 9.57031 7.71484 Q11.62109 7.51953 12.10938 7.51953 Q15.91797 9.47266 23.53516 13.47656 Q30.27344 17.08984 35.25391 18.84766 Q43.65234 21.97266 50.68359 21.97266 Q55.85938 21.97266 60.83984 19.72656 Q61.03516 18.35938 61.13281 17.77344 z" />
<glyph unicode="s" horiz-adv-x="29.10156" d="M22.16797 -4.58984 Q19.92188 -8.10547 15.72266 -8.69141 Q15.52734 -7.91016 15.52734 -7.32422 Q19.23828 -5.46875 19.23828 -3.02734 Q19.23828 1.66016 10.54688 8.30078 Q8.59375 9.76562 4.78516 12.79297 Q1.66016 16.99219 1.66016 20.01953 Q1.66016 22.75391 4.29688 24.51172 Q9.76562 28.125 17.28516 31.54297 Q20.70312 28.90625 20.70312 27.05078 Q20.70312 23.53516 12.40234 21.67969 Q8.98438 20.80078 7.61719 20.21484 Q6.34766 19.43359 6.34766 18.35938 Q6.34766 17.87109 6.64062 17.28516 Q7.61719 15.42969 9.17969 15.42969 Q16.60156 10.05859 18.84766 7.22656 Q22.16797 2.92969 22.16797 -4.58984 z" />
<glyph unicode="t" horiz-adv-x="56.93359" d="M51.07422 -1.95312 Q46.875 -5.07812 42.28516 -5.07812 Q31.54297 -5.07812 22.26562 5.27344 Q18.26172 9.57031 16.40625 13.67188 Q11.81641 13.37891 7.42188 10.83984 Q2.92969 8.20312 0.58594 7.91016 Q-0.87891 10.05859 -0.87891 11.52344 Q-0.87891 12.5 -0.29297 13.18359 Q2.24609 16.50391 10.54688 16.60156 Q14.0625 16.60156 15.72266 16.60156 Q14.0625 23.33984 12.5 32.03125 Q12.10938 33.98438 12.10938 36.81641 Q12.10938 38.67188 12.40234 40.72266 Q12.98828 44.72656 16.01562 45.50781 Q18.16406 42.08984 18.16406 36.13281 Q18.16406 34.47266 17.87109 31.25 Q17.67578 28.02734 17.67578 26.46484 Q17.67578 21.38672 18.65234 17.77344 Q24.02344 17.77344 33.20312 19.14062 Q43.65234 20.70312 47.55859 20.99609 Q48.82812 20.01953 48.82812 19.33594 Q48.82812 18.26172 46.28906 17.87109 Q42.08984 17.1875 38.18359 17.1875 Q35.64453 16.79688 29.58984 15.72266 Q26.75781 15.23438 20.99609 14.25781 Q25.39062 6.15234 30.66406 2.73438 Q36.32812 -0.97656 45.21484 -0.97656 Q45.99609 -0.68359 48.53516 0.09766 Q49.12109 0.19531 49.41406 0.19531 Q51.07422 0.19531 51.07422 -1.95312 z" />
<glyph unicode="u" horiz-adv-x="62.10938" d="M55.07812 6.54297 Q51.66016 4.10156 49.21875 4.10156 Q46.77734 4.10156 45.41016 6.44531 Q42.67578 11.03516 38.67188 16.01562 Q37.10938 16.01562 34.57031 12.69531 Q31.44531 8.49609 29.78516 6.73828 Q25 1.75781 17.87109 1.75781 Q17.77344 1.75781 17.57812 1.75781 Q10.54688 1.85547 5.56641 7.42188 Q2.73438 8.39844 1.17188 17.87109 Q1.17188 20.01953 2.63672 20.89844 Q3.22266 21.19141 6.15234 21.97266 Q8.78906 18.94531 8.78906 15.42969 Q8.78906 14.74609 8.69141 14.0625 Q8.10547 9.57031 10.15625 8.39844 Q15.82031 4.98047 19.62891 4.98047 Q22.55859 4.98047 24.31641 6.93359 Q27.73438 10.83984 35.54688 19.62891 Q36.81641 19.92188 40.23438 19.92188 Q42.67578 16.69922 48.33984 10.9375 Q52.24609 10.25391 52.73438 10.05859 Q54.78516 9.17969 55.07812 6.54297 z" />
<glyph unicode="v" horiz-adv-x="44.92188" d="M46.97266 26.46484 Q41.11328 20.99609 23.63281 4.58984 Q20.99609 3.125 18.35938 3.125 Q15.03906 3.125 11.91406 5.66406 Q6.34766 10.25391 -0.97656 10.15625 Q-0.48828 14.0625 2.24609 15.42969 Q3.51562 16.01562 8.69141 16.89453 Q10.35156 15.82031 14.74609 12.30469 Q18.75 8.98438 20.41016 8.20312 Q24.90234 8.20312 34.96094 18.35938 Q44.23828 27.63672 46.48438 27.63672 Q46.77734 27.63672 46.97266 27.53906 Q46.97266 27.24609 46.97266 26.46484 z" />
<glyph unicode="w" horiz-adv-x="70.11719" d="M67.67578 28.51562 Q62.59766 21.875 54.19922 15.23438 Q44.62891 7.8125 39.64844 5.07812 Q37.20703 3.71094 35.44922 3.71094 Q34.47266 3.71094 33.69141 4.10156 Q32.03125 4.88281 30.46875 6.64062 Q29.58984 7.71484 27.73438 9.96094 Q27.05078 10.83984 25.87891 10.83984 Q25.09766 10.83984 24.12109 10.35156 Q17.08984 4.58984 11.42578 4.58984 Q9.17969 4.58984 6.93359 5.66406 Q1.66016 8.20312 1.66016 15.82031 Q1.66016 18.65234 2.34375 22.07031 Q3.90625 22.07031 6.34766 22.26562 Q8.88672 22.55859 10.54688 21.28906 Q10.54688 19.72656 10.15625 16.60156 Q9.76562 13.37891 9.76562 11.81641 Q10.9375 8.20312 12.89062 8.20312 Q15.23438 8.20312 22.55859 12.89062 Q25.19531 14.74609 28.02734 14.74609 Q28.71094 13.57422 30.17578 11.32812 Q31.44531 9.47266 33.20312 8.98438 Q42.08984 9.47266 51.17188 15.82031 Q57.42188 20.21484 65.52734 29.10156 Q66.30859 29.19922 67.57812 29.49219 Q67.77344 29.10156 67.77344 28.80859 Q67.77344 28.61328 67.67578 28.51562 z" />
<glyph unicode="x" horiz-adv-x="55.76172" d="M59.66797 -0.87891 Q55.56641 -3.125 50.58594 -2.83203 Q43.06641 -2.44141 29.98047 1.66016 Q24.90234 3.22266 20.80078 3.51562 Q17.38281 0.48828 9.96094 -4.78516 Q7.8125 -5.95703 6.05469 -5.95703 Q5.37109 -5.95703 4.88281 -5.85938 Q2.73438 -5.37109 2.24609 -0.87891 Q7.61719 -0.29297 14.94141 5.37109 Q13.86719 6.64062 8.78906 7.91016 Q3.22266 9.47266 1.36719 10.83984 Q1.36719 12.89062 1.66016 13.57422 Q1.75781 13.96484 3.32031 16.01562 Q6.15234 16.01562 12.20703 12.69531 Q18.26172 9.47266 21.48438 9.47266 Q25.58594 12.5 33.59375 18.65234 Q34.76562 18.35938 34.76562 18.35938 Q34.76562 14.74609 30.66406 11.91406 Q26.17188 8.98438 25.78125 6.64062 Q41.60156 1.66016 57.61719 0.58594 Q58.39844 1.17188 59.66797 1.17188 Q59.66797 0.48828 59.66797 -0.87891 z" />
<glyph unicode="y" horiz-adv-x="53.41797" d="M44.72656 -11.32812 Q41.40625 -31.64062 31.83594 -32.91016 Q31.05469 -31.83594 31.05469 -30.66406 Q31.05469 -29.10156 32.51953 -27.44141 Q35.05859 -24.31641 36.91406 -21.875 Q40.72266 -12.98828 41.11328 -2.34375 Q41.60156 11.81641 33.00781 12.79297 Q24.60938 7.61719 20.70312 5.07812 Q18.55469 3.51562 15.52734 3.51562 Q12.01172 3.51562 7.42188 5.46875 Q5.07812 7.22656 3.02734 9.76562 Q0.58594 12.98828 0.58594 15.23438 Q0.58594 16.30859 1.17188 17.28516 Q2.24609 18.94531 6.93359 18.94531 Q10.25391 14.64844 13.67188 10.83984 Q15.23438 9.08203 17.87109 9.08203 Q20.50781 9.08203 24.31641 10.83984 Q26.17188 12.69531 30.07812 16.30859 Q33.49609 19.43359 36.81641 19.43359 Q41.50391 14.74609 43.65234 4.78516 Q45.11719 -2.14844 45.11719 -7.22656 Q45.11719 -9.57031 44.72656 -11.32812 z" />
<glyph unicode="z" horiz-adv-x="51.66016" d="M45.99609 -2.34375 Q39.94141 -6.15234 30.46875 -6.54297 Q30.07812 -6.54297 29.78516 -6.54297 Q25.87891 -6.54297 23.24219 -4.98047 Q21.19141 -3.80859 21.19141 -1.26953 Q21.19141 -0.09766 21.67969 1.46484 Q22.07031 1.95312 28.125 7.91016 Q32.42188 12.10938 32.91016 14.74609 Q26.66016 14.74609 17.08984 11.52344 Q6.54297 7.91016 1.46484 7.51953 Q-0.68359 9.17969 -0.87891 9.47266 Q-1.5625 10.25391 -1.5625 12.40234 Q4.78516 17.28516 18.45703 18.75 Q22.65625 19.14062 40.23438 19.53125 Q41.60156 18.06641 41.60156 16.50391 Q41.60156 15.23438 40.72266 13.86719 Q38.18359 9.57031 28.80859 2.05078 Q25.68359 -0.58594 25.68359 -2.34375 Q27.14844 -3.02734 30.37109 -3.02734 Q32.32422 -3.02734 35.05859 -2.73438 Q42.08984 -2.05078 46.38672 -1.17188 Q46.19141 -1.75781 45.99609 -2.34375 z" />
<glyph unicode="~" horiz-adv-x="41.11328" d="M38.18359 27.92969 Q33.30078 24.12109 26.36719 19.92188 Q22.55859 17.48047 19.14062 17.48047 Q16.30859 17.48047 13.96484 19.14062 Q8.20312 18.35938 6.34766 13.96484 Q4.78516 10.05859 0.39062 10.05859 Q-0.09766 10.05859 -0.78125 10.15625 Q-1.17188 11.03516 -1.17188 11.91406 Q-1.17188 14.94141 3.125 18.75 Q8.69141 23.73047 12.79297 24.12109 Q16.30859 21.09375 19.62891 20.89844 Q22.85156 20.70312 27.53906 22.65625 Q30.46875 24.41406 36.13281 28.02734 Q37.40234 28.80859 38.08594 28.80859 Q38.28125 28.51562 38.28125 28.22266 Q38.28125 28.02734 38.18359 27.92969 z" />
<glyph unicode="" horiz-adv-x="56.05469" d="M10.35156 13.28125 Q15.03906 16.40625 19.92188 18.94531 Q24.90234 21.38672 30.07812 22.94922 Q32.22656 23.4375 33.88672 22.94922 Q36.03516 22.26562 37.59766 19.92188 Q40.33203 15.72266 45.21484 14.35547 Q44.14062 11.91406 41.99219 11.52344 Q41.79688 11.52344 41.40625 11.52344 Q40.13672 11.52344 37.5 11.91406 Q36.62109 12.89062 34.47266 16.11328 Q32.42188 19.04297 31.54297 19.92188 Q28.61328 20.80078 19.92188 16.21094 Q11.91406 12.01172 10.44922 12.40234 Q10.25391 12.5 10.15625 12.5 Q10.15625 12.79297 10.35156 13.28125 zM10.74219 26.07422 Q15.42969 29.29688 20.3125 31.73828 Q25.19531 34.17969 30.46875 35.74219 Q31.44531 36.03516 32.32422 36.03516 Q33.30078 36.03516 34.17969 35.74219 Q36.42578 35.05859 37.98828 32.71484 Q40.72266 28.61328 45.60547 27.14844 Q44.43359 24.70703 42.38281 24.41406 Q41.40625 24.21875 37.79297 24.70703 Q36.91406 25.68359 34.76562 28.90625 Q32.8125 31.93359 31.83594 32.71484 Q28.90625 33.69141 20.21484 29.00391 Q12.30469 24.80469 10.74219 25.19531 Q10.64453 25.29297 10.44922 25.39062 Q10.54688 25.58594 10.74219 26.07422 z" />
<glyph unicode="" horiz-adv-x="56.05469" d="M51.36719 7.12891 Q49.12109 10.15625 46.97266 13.08594 Q32.51953 13.08594 13.18359 4.49219 Q12.69531 4.49219 12.5 4.49219 Q12.20703 4.49219 11.32812 4.49219 Q9.86328 5.95703 9.86328 7.32422 Q9.86328 8.88672 12.10938 10.25391 Q19.33594 14.64844 35.25391 17.1875 Q41.50391 18.16406 42.57812 18.35938 Q42.57812 21.48438 36.42578 29.19922 Q30.17578 37.10938 27.14844 37.10938 Q25.39062 35.25391 24.41406 34.27734 Q23.53516 33.30078 21.48438 31.05469 Q20.80078 30.27344 19.82422 29.39453 Q18.94531 28.41797 17.77344 27.14844 Q15.03906 22.85156 7.51953 11.71875 Q-0.58594 0.19531 -4.6875 -0.19531 Q-5.66406 1.26953 -5.66406 3.02734 Q-5.66406 5.56641 -3.61328 8.98438 Q2.05078 18.55469 16.60156 31.93359 Q22.36328 37.30469 25 40.52734 Q27.83203 42.38281 29.39453 42.38281 Q30.95703 42.38281 34.96094 39.0625 Q38.57422 34.375 47.94922 22.16797 Q58.00781 8.78906 58.00781 4.39453 Q54.00391 4.39453 51.36719 7.12891 zM50.58594 65.33203 Q47.26562 62.30469 32.8125 52.14844 Q32.61719 52.34375 32.03125 52.92969 Q33.78906 56.93359 39.55078 62.79297 Q45.21484 68.55469 49.21875 70.41016 Q50.09766 70.01953 50.58594 69.62891 Q51.46484 67.48047 50.58594 65.33203 z" />
<glyph unicode="" horiz-adv-x="56" d="M52.48312 7.32791 Q50.33468 10.35525 48.08859 13.3826 Q33.63546 13.3826 14.29953 4.78885 Q13.81124 4.78885 13.61593 4.78885 Q13.42062 4.78885 12.44406 4.78885 Q10.97921 6.15603 10.97921 7.52322 Q10.97921 9.18338 13.22531 10.55057 Q20.45187 14.9451 36.4675 17.3865 Q42.7175 18.36307 43.79171 18.65603 Q43.79171 21.78103 37.63937 29.49588 Q31.29171 37.40603 28.26437 37.40603 Q26.50656 35.45291 25.62765 34.47635 Q24.65109 33.49978 22.60031 31.25369 Q21.91671 30.47244 21.03781 29.59353 Q20.06124 28.61697 18.98703 27.34744 Q16.15499 23.05057 8.63546 11.91775 Q0.62765 0.49197 -3.47391 0.10135 Q-4.45047 1.46853 -4.45047 3.324 Q-4.45047 5.86307 -2.49735 9.18338 Q3.26437 18.75369 17.7175 32.1326 Q23.57687 37.50369 26.21359 40.72635 Q28.94796 42.58181 30.51046 42.58181 Q32.07296 42.58181 36.07687 39.2615 Q39.78781 34.574 49.16281 22.36697 Q59.12374 8.98807 59.12374 4.59353 Q55.11984 4.59353 52.48312 7.32791 zM10.94012 44.38051 Q15.25211 48.17198 19.89117 51.43049 Q24.53024 54.68902 29.66594 57.19656 Q31.7372 58.02031 33.57835 57.79024 Q33.67525 57.77813 33.86906 57.75392 Q36.09782 57.47541 37.95113 55.76758 Q41.47608 52.47305 46.74515 52.10987 Q46.0427 49.63884 43.88666 48.92411 Q42.954 48.54856 39.18693 48.33039 Q38.09675 49.05712 35.27437 51.67336 Q32.71849 54.05947 31.6041 54.59239 Q28.4911 54.88297 20.26676 48.92317 Q12.7934 43.46002 11.13396 43.56897 Q11.03705 43.58108 10.85536 43.70219 Q10.87957 43.896 10.94012 44.38051 z" />
<glyph unicode="" horiz-adv-x="56.05469" d="M53.125 7.32422 Q50.97656 10.35156 48.73047 13.37891 Q34.27734 13.37891 14.94141 4.78516 Q14.45312 4.78516 14.25781 4.78516 Q14.0625 4.78516 13.08594 4.78516 Q11.62109 6.15234 11.62109 7.51953 Q11.62109 9.17969 13.86719 10.54688 Q21.09375 14.94141 37.10938 17.38281 Q43.35938 18.35938 44.43359 18.65234 Q44.43359 21.77734 38.28125 29.49219 Q31.93359 37.40234 28.90625 37.40234 Q27.14844 35.44922 26.26953 34.47266 Q25.29297 33.49609 23.24219 31.25 Q22.55859 30.46875 21.67969 29.58984 Q20.70312 28.61328 19.62891 27.34375 Q16.79688 23.04688 9.27734 11.91406 Q1.26953 0.48828 -2.83203 0.09766 Q-3.80859 1.46484 -3.80859 3.32031 Q-3.80859 5.85938 -1.85547 9.17969 Q3.90625 18.75 18.35938 32.12891 Q24.21875 37.5 26.85547 40.72266 Q29.58984 42.57812 31.15234 42.57812 Q32.71484 42.57812 36.71875 39.25781 Q40.42969 34.57031 49.80469 22.36328 Q59.76562 8.98438 59.76562 4.58984 Q55.76172 4.58984 53.125 7.32422 zM43.26172 51.5625 Q38.96484 50.09766 35.64453 50.87891 Q32.91016 51.46484 30.95703 53.61328 Q25.19531 54.19922 22.36328 50.29297 Q19.92188 46.97266 15.72266 47.94922 Q15.13672 48.04688 14.55078 48.24219 Q14.35547 49.12109 14.55078 50.09766 Q15.23438 52.92969 20.3125 55.76172 Q26.07422 58.88672 29.98047 58.88672 Q30.46875 58.88672 30.95703 58.78906 Q33.78906 54.98047 36.91406 54.10156 Q39.94141 53.125 45.01953 54.00391 Q47.46094 54.78516 48.63281 55.17578 Q49.80469 55.56641 54.58984 57.22656 Q55.95703 57.71484 56.64062 57.61719 Q56.73828 57.22656 56.73828 56.93359 Q56.64062 56.73828 56.54297 56.64062 Q50.97656 54.10156 43.26172 51.5625 z" />
<glyph unicode="" horiz-adv-x="41.01562" d="M27.34375 38.67188 Q24.80469 37.10938 23.53516 36.32812 Q22.26562 35.64453 17.28516 32.51953 Q7.03125 25.39062 7.03125 15.42969 Q7.03125 14.55078 7.12891 13.37891 Q7.42188 9.57031 13.57422 6.44531 Q18.06641 4.10156 23.04688 3.22266 Q24.02344 3.22266 26.95312 3.41797 Q29.39453 3.51562 30.95703 2.63672 Q30.76172 1.75781 30.76172 1.46484 Q28.41797 0.78125 25.87891 0.78125 Q24.21875 0.78125 22.16797 1.17188 Q17.1875 1.95312 14.0625 2.92969 Q4.00391 7.91016 3.02734 15.42969 Q2.83203 16.99219 2.83203 18.06641 Q2.83203 31.64062 18.84766 42.57812 Q26.75781 48.04688 34.375 49.02344 Q35.05859 48.33984 36.71875 47.55859 Q36.71875 46.28906 36.81641 45.70312 Q33.39844 42.38281 27.34375 38.67188 zM22.46094 -2.73438 Q22.75391 -3.02734 23.14453 -3.51562 Q22.65625 -6.64062 19.72656 -11.62109 Q16.60156 -16.69922 14.16016 -18.75 Q13.57422 -18.35938 13.47656 -18.26172 Q17.87109 -6.34766 19.43359 -3.51562 Q20.80078 -2.44141 22.46094 -2.73438 z" />
<glyph unicode="" horiz-adv-x="56.05469" d="M30.85938 0.19531 Q29.00391 -0.09766 26.95312 -0.09766 Q16.50391 -0.09766 7.91016 8.78906 Q7.32422 11.03516 5.85938 13.96484 Q-0.58594 11.03516 -2.92969 11.03516 Q-3.61328 11.71875 -4.00391 14.25781 Q-3.22266 14.94141 6.34766 19.23828 Q8.00781 25.97656 11.81641 33.39844 Q16.79688 43.45703 21.48438 42.87109 Q21.97266 41.79688 21.97266 40.52734 Q21.97266 37.40234 19.23828 32.91016 Q15.13672 26.36719 14.0625 23.24219 Q15.33203 23.33984 24.21875 26.5625 Q29.58984 28.51562 35.83984 30.37109 Q36.62109 28.51562 37.10938 27.14844 Q37.40234 26.36719 37.40234 25.68359 Q37.40234 24.90234 37.01172 24.60938 Q18.55469 23.14453 12.10938 16.69922 Q11.42578 14.45312 11.52344 12.69531 Q11.52344 10.83984 13.86719 8.49609 Q22.36328 3.22266 30.37109 3.22266 Q32.51953 3.22266 34.76562 3.71094 Q44.92188 5.66406 56.83594 10.05859 Q56.54297 9.57031 56.34766 8.49609 Q43.55469 2.14844 30.85938 0.19531 zM47.55859 62.30469 Q31.05469 56.34766 -0.58594 40.52734 Q-3.02734 41.01562 -3.32031 42.08984 Q-3.51562 43.94531 -3.61328 45.80078 Q0.09766 49.02344 25.39062 57.91016 Q35.54688 61.42578 44.14062 63.76953 Q49.80469 65.23438 52.44141 65.23438 Q53.80859 65.23438 54.29688 64.84375 Q54.00391 63.96484 54.00391 63.67188 Q52.44141 62.98828 47.55859 62.30469 zM39.25781 79.88281 Q36.42578 76.46484 23.53516 64.45312 Q23.24219 64.55078 22.55859 65.03906 Q23.82812 69.33594 28.71094 75.97656 Q33.49609 82.42188 37.20703 84.66797 Q38.18359 84.47266 38.76953 84.17969 Q39.84375 82.12891 39.25781 79.88281 z" />
<glyph unicode="" horiz-adv-x="56.05469" d="M30.85938 0.19531 Q29.00391 -0.09766 26.95312 -0.09766 Q16.50391 -0.09766 7.91016 8.78906 Q7.32422 11.03516 5.85938 13.96484 Q-0.58594 11.03516 -2.92969 11.03516 Q-3.61328 11.71875 -4.00391 14.25781 Q-3.22266 14.94141 6.34766 19.23828 Q8.00781 25.97656 11.81641 33.39844 Q16.79688 43.45703 21.48438 42.87109 Q21.97266 41.79688 21.97266 40.52734 Q21.97266 37.40234 19.23828 32.91016 Q15.13672 26.36719 14.0625 23.24219 Q15.33203 23.33984 24.21875 26.5625 Q29.58984 28.51562 35.83984 30.37109 Q36.62109 28.51562 37.10938 27.14844 Q37.40234 26.36719 37.40234 25.68359 Q37.40234 24.90234 37.01172 24.60938 Q18.55469 23.14453 12.10938 16.69922 Q11.42578 14.45312 11.52344 12.69531 Q11.52344 10.83984 13.86719 8.49609 Q22.36328 3.22266 30.37109 3.22266 Q32.51953 3.22266 34.76562 3.71094 Q44.92188 5.66406 56.83594 10.05859 Q56.54297 9.57031 56.34766 8.49609 Q43.55469 2.14844 30.85938 0.19531 zM47.55859 62.30469 Q31.05469 56.34766 -0.58594 40.52734 Q-3.02734 41.01562 -3.32031 42.08984 Q-3.51562 43.94531 -3.61328 45.80078 Q0.09766 49.02344 25.39062 57.91016 Q35.54688 61.42578 44.14062 63.76953 Q49.80469 65.23438 52.44141 65.23438 Q53.80859 65.23438 54.29688 64.84375 Q54.00391 63.96484 54.00391 63.67188 Q52.44141 62.98828 47.55859 62.30469 zM10.25391 61.32812 Q14.0625 65.625 18.26172 69.43359 Q22.46094 73.24219 27.24609 76.36719 Q29.19922 77.44141 31.05469 77.44141 Q31.15234 77.44141 31.34766 77.44141 Q33.59375 77.44141 35.64453 75.97656 Q39.55078 73.14453 44.82422 73.4375 Q44.43359 70.89844 42.38281 69.92188 Q41.50391 69.43359 37.79297 68.75 Q36.62109 69.33594 33.49609 71.58203 Q30.66406 73.63281 29.49219 74.02344 Q26.36719 73.92578 18.94531 66.99219 Q12.20703 60.64453 10.54688 60.54688 Q10.44922 60.54688 10.25391 60.64453 Q10.25391 60.83984 10.25391 61.32812 z" />
<glyph unicode="" horiz-adv-x="31.05469" d="M14.64844 28.90625 Q14.0625 19.14062 12.79297 12.79297 Q12.10938 9.17969 10.9375 8.10547 Q9.47266 9.57031 9.375 16.89453 Q9.47266 20.01953 9.17969 27.53906 Q8.98438 30.76172 7.61719 39.74609 Q7.12891 42.38281 5.66406 50 Q5.66406 56.25 5.85938 56.73828 Q6.54297 59.57031 10.9375 60.25391 Q14.74609 55.76172 14.94141 47.65625 Q15.03906 36.32812 14.94141 34.47266 Q14.94141 33.10547 14.64844 28.90625 zM26.46484 83.00781 Q23.53516 79.58984 10.54688 67.67578 Q10.25391 67.77344 9.57031 68.26172 Q10.9375 72.55859 15.82031 79.10156 Q20.60547 85.54688 24.41406 87.79297 Q25.39062 87.59766 25.87891 87.30469 Q26.66016 85.9375 26.66016 84.57031 Q26.66016 83.78906 26.46484 83.00781 z" />
<glyph unicode="" horiz-adv-x="56.05469" d="M44.14062 5.76172 Q38.37891 -0.87891 30.37109 -3.61328 Q25.97656 -5.07812 21.48438 -5.07812 Q18.16406 -5.07812 15.03906 -4.39453 Q7.22656 -2.53906 1.07422 4.88281 Q-1.26953 10.74219 -1.26953 15.42969 Q-1.26953 20.41016 1.36719 24.21875 Q6.34766 31.54297 17.08984 34.57031 Q18.16406 34.86328 23.24219 36.91406 Q25.39062 37.69531 27.24609 37.69531 Q28.80859 37.69531 30.17578 37.01172 Q30.17578 29.88281 25.19531 26.75781 Q23.82812 27.73438 23.63281 29.10156 Q23.33984 31.05469 22.85156 31.93359 Q4.58984 30.76172 3.22266 17.38281 Q3.22266 6.83594 9.17969 3.51562 Q13.67188 0.97656 19.14062 0.97656 Q25.97656 0.97656 34.96094 5.07812 Q40.03906 7.51953 43.06641 10.74219 Q47.07031 15.23438 45.3125 19.82422 Q44.14062 22.94922 38.67188 27.53906 Q36.62109 29.10156 36.23047 31.83594 Q36.91406 33.00781 37.98828 33.78906 Q44.43359 33.78906 48.14453 30.37109 Q52.14844 26.85547 52.14844 20.50781 Q49.90234 12.20703 44.14062 5.76172 zM43.35938 57.32422 Q40.13672 54.29688 25.68359 44.14062 Q25.39062 44.33594 24.80469 44.92188 Q26.66016 48.92578 32.32422 54.78516 Q37.98828 60.54688 42.08984 62.40234 Q42.96875 62.01172 43.45703 61.62109 Q44.33594 59.47266 43.35938 57.32422 z" />
<glyph unicode="" horiz-adv-x="56.05469" d="M44.14062 5.76172 Q38.37891 -0.87891 30.37109 -3.61328 Q25.97656 -5.07812 21.48438 -5.07812 Q18.16406 -5.07812 15.03906 -4.39453 Q7.22656 -2.53906 1.07422 4.88281 Q-1.26953 10.74219 -1.26953 15.42969 Q-1.26953 20.41016 1.36719 24.21875 Q6.34766 31.54297 17.08984 34.57031 Q18.16406 34.86328 23.24219 36.91406 Q25.39062 37.69531 27.24609 37.69531 Q28.80859 37.69531 30.17578 37.01172 Q30.17578 29.88281 25.19531 26.75781 Q23.82812 27.73438 23.63281 29.10156 Q23.33984 31.05469 22.85156 31.93359 Q4.58984 30.76172 3.22266 17.38281 Q3.22266 6.83594 9.17969 3.51562 Q13.67188 0.97656 19.14062 0.97656 Q25.97656 0.97656 34.96094 5.07812 Q40.03906 7.51953 43.06641 10.74219 Q47.07031 15.23438 45.3125 19.82422 Q44.14062 22.94922 38.67188 27.53906 Q36.62109 29.10156 36.23047 31.83594 Q36.91406 33.00781 37.98828 33.78906 Q44.43359 33.78906 48.14453 30.37109 Q52.14844 26.85547 52.14844 20.50781 Q49.90234 12.20703 44.14062 5.76172 zM35.15625 47.46094 Q30.95703 45.80078 27.63672 46.38672 Q24.90234 46.97266 22.85156 49.02344 Q17.08984 49.31641 14.45312 45.3125 Q12.10938 41.79688 7.91016 42.67578 Q7.32422 42.77344 6.73828 42.87109 Q6.44531 43.84766 6.64062 44.72656 Q7.12891 47.65625 12.10938 50.58594 Q18.06641 54.19922 21.97266 54.19922 Q22.36328 54.19922 22.65625 54.19922 Q25.58594 50.48828 28.80859 49.70703 Q31.93359 48.92578 36.91406 49.90234 Q39.25781 50.87891 40.42969 51.36719 Q41.60156 51.75781 46.28906 53.61328 Q47.65625 54.19922 48.33984 54.10156 Q48.53516 53.71094 48.4375 53.41797 Q48.4375 53.22266 48.24219 53.125 Q42.77344 50.39062 35.15625 47.46094 z" />
<glyph unicode="" horiz-adv-x="56.05469" d="M48.63281 31.34766 Q48.63281 25.48828 45.01953 17.08984 Q37.79297 0.78125 25 0 Q24.60938 0 24.31641 0 Q18.06641 0 11.23047 6.83594 Q8.00781 14.74609 6.44531 22.85156 Q6.05469 24.90234 6.05469 26.85547 Q6.05469 33.00781 9.375 39.55078 Q10.9375 40.91797 12.20703 40.82031 Q13.47656 40.72266 13.86719 37.69531 Q13.67188 33.88672 12.89062 27.73438 Q12.5 24.31641 12.5 21.28906 Q12.5 18.55469 12.89062 15.42969 Q13.67188 9.57031 16.69922 6.05469 Q18.75 3.71094 22.26562 3.71094 Q24.51172 3.71094 27.24609 4.6875 Q37.59766 8.39844 42.08984 19.43359 Q45.41016 27.44141 45.89844 40.72266 Q45.11719 43.35938 45.11719 47.26562 Q45.80078 47.46094 46.48438 48.04688 Q48.4375 46.09375 48.53516 39.45312 Q48.53516 36.81641 48.63281 31.34766 zM45.41016 64.94141 Q42.08984 61.91406 27.63672 51.75781 Q27.44141 51.85547 26.85547 52.44141 Q28.71094 56.54297 34.375 62.40234 Q40.03906 68.16406 44.04297 69.92188 Q44.92188 69.53125 45.41016 69.23828 Q46.28906 67.08984 45.41016 64.94141 z" />
<glyph unicode="" horiz-adv-x="56.05469" d="M50.97656 4.88281 Q49.31641 4.88281 47.46094 7.51953 Q46.19141 9.27734 44.33594 11.13281 Q43.16406 12.40234 41.40625 12.40234 Q40.23438 12.40234 39.25781 12.01172 Q35.54688 10.64453 28.22266 5.85938 Q20.41016 0.97656 17.08984 -0.68359 Q10.25391 -3.80859 4.78516 -3.90625 Q4.6875 -3.90625 4.58984 -3.90625 Q1.66016 -3.90625 -0.09766 -1.46484 Q-1.66016 0.78125 -1.66016 3.90625 Q-1.66016 9.27734 7.22656 15.82031 Q15.91797 22.26562 21.97266 22.26562 Q22.55859 22.26562 23.33984 22.16797 Q24.12109 20.99609 24.31641 18.75 Q22.26562 16.01562 18.45703 14.64844 Q16.11328 13.96484 11.52344 12.40234 Q3.22266 9.76562 3.51562 3.02734 Q5.07812 0.78125 7.51953 0.78125 Q8.98438 0.78125 10.54688 1.46484 Q15.23438 3.32031 21.77734 7.51953 Q25.29297 9.76562 32.42188 14.25781 Q37.30469 17.1875 41.50391 17.1875 Q42.1875 17.1875 42.87109 17.08984 Q50.09766 14.35547 50.87891 13.96484 Q55.56641 11.42578 55.56641 7.71484 Q52.73438 4.88281 50.97656 4.88281 zM11.23047 52.92969 Q11.71875 53.22266 12.59766 53.61328 Q16.60156 51.85547 22.26562 46.09375 Q27.92969 40.23438 29.78516 36.13281 Q29.19922 35.54688 28.90625 35.44922 Q14.55078 45.50781 11.23047 48.53516 Q10.35156 50.68359 11.23047 52.92969 z" />
<glyph unicode="" horiz-adv-x="56.05469" d="M50.97656 4.88281 Q49.31641 4.88281 47.46094 7.51953 Q46.19141 9.27734 44.33594 11.13281 Q43.16406 12.40234 41.40625 12.40234 Q40.23438 12.40234 39.25781 12.01172 Q35.54688 10.64453 28.22266 5.85938 Q20.41016 0.97656 17.08984 -0.68359 Q10.25391 -3.80859 4.78516 -3.90625 Q4.6875 -3.90625 4.58984 -3.90625 Q1.66016 -3.90625 -0.09766 -1.46484 Q-1.66016 0.78125 -1.66016 3.90625 Q-1.66016 9.27734 7.22656 15.82031 Q15.91797 22.26562 21.97266 22.26562 Q22.55859 22.26562 23.33984 22.16797 Q24.12109 20.99609 24.31641 18.75 Q22.26562 16.01562 18.45703 14.64844 Q16.11328 13.96484 11.52344 12.40234 Q3.22266 9.76562 3.51562 3.02734 Q5.07812 0.78125 7.51953 0.78125 Q8.98438 0.78125 10.54688 1.46484 Q15.23438 3.32031 21.77734 7.51953 Q25.29297 9.76562 32.42188 14.25781 Q37.30469 17.1875 41.50391 17.1875 Q42.1875 17.1875 42.87109 17.08984 Q50.09766 14.35547 50.87891 13.96484 Q55.56641 11.42578 55.56641 7.71484 Q52.73438 4.88281 50.97656 4.88281 zM43.16406 47.26562 Q39.84375 44.23828 25.48828 34.08203 Q25.19531 34.17969 24.60938 34.76562 Q26.46484 38.86719 32.12891 44.72656 Q37.79297 50.48828 41.79688 52.24609 Q42.67578 51.85547 43.26172 51.5625 Q44.04297 49.41406 43.16406 47.26562 z" />
<glyph unicode="" horiz-adv-x="56.05469" d="M50.97656 4.88281 Q49.31641 4.88281 47.46094 7.51953 Q46.19141 9.27734 44.33594 11.13281 Q43.16406 12.40234 41.40625 12.40234 Q40.23438 12.40234 39.25781 12.01172 Q35.54688 10.64453 28.22266 5.85938 Q20.41016 0.97656 17.08984 -0.68359 Q10.25391 -3.80859 4.78516 -3.90625 Q4.6875 -3.90625 4.58984 -3.90625 Q1.66016 -3.90625 -0.09766 -1.46484 Q-1.66016 0.78125 -1.66016 3.90625 Q-1.66016 9.27734 7.22656 15.82031 Q15.91797 22.26562 21.97266 22.26562 Q22.55859 22.26562 23.33984 22.16797 Q24.12109 20.99609 24.31641 18.75 Q22.26562 16.01562 18.45703 14.64844 Q16.11328 13.96484 11.52344 12.40234 Q3.22266 9.76562 3.51562 3.02734 Q5.07812 0.78125 7.51953 0.78125 Q8.98438 0.78125 10.54688 1.46484 Q15.23438 3.32031 21.77734 7.51953 Q25.29297 9.76562 32.42188 14.25781 Q37.30469 17.1875 41.50391 17.1875 Q42.1875 17.1875 42.87109 17.08984 Q50.09766 14.35547 50.87891 13.96484 Q55.56641 11.42578 55.56641 7.71484 Q52.73438 4.88281 50.97656 4.88281 zM36.13281 32.91016 Q31.93359 31.15234 28.61328 31.64062 Q25.87891 32.03125 23.73047 33.98438 Q17.87109 34.08203 15.42969 29.98047 Q13.28125 26.36719 8.98438 26.95312 Q8.39844 27.05078 7.8125 27.24609 Q7.51953 28.125 7.61719 29.00391 Q8.10547 31.93359 12.89062 35.15625 Q19.23828 39.25781 23.24219 39.16016 Q26.36719 35.54688 29.58984 34.86328 Q32.71484 34.27734 37.69531 35.54688 Q40.03906 36.52344 41.11328 37.01172 Q42.28516 37.5 46.97266 39.55078 Q48.04688 40.13672 48.73047 40.13672 Q48.82812 40.13672 48.92578 40.03906 Q49.12109 39.74609 49.12109 39.45312 Q49.02344 39.25781 48.92578 39.16016 Q43.55469 36.13281 36.13281 32.91016 z" />
<glyph unicode="" horiz-adv-x="56.05469" d="M43.45703 24.51172 Q42.57812 24.51172 41.79688 24.80469 Q37.40234 26.07422 31.05469 25.09766 Q24.80469 24.21875 19.62891 19.43359 Q14.45312 14.94141 14.45312 9.96094 Q14.45312 8.98438 14.55078 8.49609 Q15.52734 5.17578 22.36328 5.76172 Q39.16016 8.69141 37.69531 3.125 Q36.52344 -0.48828 16.89453 0.39062 Q9.66797 2.53906 9.66797 7.12891 Q9.66797 7.32422 9.66797 7.42188 Q10.44922 20.01953 22.36328 27.53906 Q32.22656 33.88672 44.62891 33.88672 Q44.82422 33.88672 45.01953 33.88672 Q45.60547 33.88672 46.09375 33.88672 Q50.78125 33.78906 50.87891 31.64062 Q50.87891 29.78516 49.80469 27.73438 Q46.58203 24.51172 43.45703 24.51172 zM24.90234 -1.46484 Q25.19531 -1.75781 25.58594 -2.24609 Q25.09766 -5.46875 22.07031 -10.35156 Q19.04297 -15.42969 16.50391 -17.48047 Q16.01562 -17.08984 15.91797 -16.99219 Q20.3125 -5.07812 21.875 -2.24609 Q23.14453 -1.17188 24.90234 -1.46484 z" />
<glyph unicode="" horiz-adv-x="56.05469" d="M28.90625 21.19141 Q23.82812 16.21094 18.94531 15.42969 Q17.96875 16.30859 17.96875 17.1875 Q17.96875 17.77344 18.45703 18.45703 Q21.67969 21.67969 24.90234 25.29297 Q26.5625 27.14844 26.26953 29.88281 Q21.28906 29.39453 16.99219 25.68359 Q12.40234 21.67969 12.40234 16.89453 Q14.74609 10.83984 21.67969 7.12891 Q24.02344 6.15234 25.29297 5.56641 Q26.5625 5.07812 29.49219 3.80859 Q30.37109 3.41797 31.64062 2.92969 Q32.91016 2.44141 34.47266 1.75781 Q34.375 1.17188 34.375 0 Q22.16797 0.48828 14.94141 4.78516 Q10.83984 7.22656 9.08203 11.32812 Q8.39844 12.89062 8.39844 14.84375 Q8.39844 17.77344 10.05859 21.48438 Q10.64453 23.82812 14.35547 27.44141 Q21.48438 34.375 28.32031 35.74219 Q29.29688 35.9375 30.17578 35.9375 Q33.20312 35.9375 35.54688 33.69141 Q36.03516 32.61719 36.03516 31.83594 Q36.03516 31.25 35.64453 30.85938 Q33.39844 25.58594 28.90625 21.19141 zM47.55859 56.44531 Q44.23828 53.41797 29.88281 43.35938 Q29.58984 43.45703 29.00391 44.04297 Q30.85938 48.14453 36.52344 54.00391 Q42.1875 59.76562 46.19141 61.52344 Q47.07031 61.13281 47.55859 60.83984 Q48.04688 59.76562 48.04688 58.69141 Q48.04688 57.61719 47.55859 56.44531 z" />
<glyph unicode="" horiz-adv-x="56.05469" d="M22.36328 15.42969 Q17.28516 10.35156 12.40234 9.66797 Q11.42578 10.54688 11.42578 11.42578 Q11.42578 12.01172 11.81641 12.69531 Q15.13672 15.91797 18.35938 19.43359 Q19.92188 21.38672 19.62891 24.12109 Q14.74609 23.63281 10.44922 19.92188 Q5.85938 15.82031 5.85938 11.13281 Q8.20312 5.07812 15.03906 1.36719 Q17.48047 0.39062 18.75 -0.19531 Q20.01953 -0.68359 22.94922 -1.95312 Q23.82812 -2.34375 25.09766 -2.83203 Q26.26953 -3.41797 27.92969 -4.00391 Q27.83203 -4.58984 27.83203 -5.76172 Q15.52734 -5.27344 8.39844 -0.97656 Q4.29688 1.46484 2.44141 5.56641 Q1.75781 7.12891 1.75781 9.08203 Q1.75781 12.01172 3.51562 15.72266 Q4.00391 18.06641 7.8125 21.67969 Q14.94141 28.61328 21.77734 29.98047 Q22.75391 30.17578 23.63281 30.17578 Q26.66016 30.17578 29.00391 27.92969 Q29.49219 26.85547 29.49219 26.07422 Q29.49219 25.48828 29.10156 25.09766 Q26.75781 19.82422 22.36328 15.42969 zM8.78906 33.69141 Q12.59766 36.23047 16.60156 38.28125 Q20.60547 40.23438 24.90234 41.50391 Q25.68359 41.69922 26.36719 41.69922 Q27.24609 41.69922 27.92969 41.50391 Q29.6875 40.91797 30.95703 39.0625 Q33.20312 35.64453 37.20703 34.57031 Q36.23047 32.51953 34.57031 32.22656 Q33.69141 32.12891 30.85938 32.51953 Q30.07812 33.39844 28.32031 35.9375 Q26.75781 38.37891 25.97656 39.0625 Q23.63281 39.84375 16.50391 36.03516 Q10.05859 32.61719 8.88672 33.00781 Q8.69141 33.00781 8.59375 33.10547 Q8.69141 33.30078 8.78906 33.69141 z" />
<glyph unicode="" horiz-adv-x="56.05469" d="M18.65234 8.10547 Q18.45703 8.10547 18.26172 8.10547 Q17.57812 8.10547 16.30859 8.20312 Q14.16016 11.32812 13.96484 17.28516 Q13.86719 20.60547 13.67188 27.05078 Q14.64844 27.05078 15.13672 27.24609 Q16.30859 24.51172 18.75 18.94531 Q20.99609 13.67188 20.99609 10.44922 Q19.23828 8.10547 18.65234 8.10547 zM33.88672 49.90234 Q30.56641 46.875 16.11328 36.81641 Q15.82031 36.91406 15.23438 37.5 Q17.08984 41.60156 22.85156 47.46094 Q28.51562 53.125 32.61719 54.88281 Q33.49609 54.49219 33.98438 54.19922 Q34.375 53.125 34.375 52.14844 Q34.375 50.97656 33.88672 49.90234 z" />
<glyph unicode="" horiz-adv-x="41.99219" d="M25.29297 6.83594 Q19.04297 2.63672 12.59766 2.63672 Q10.15625 2.63672 7.71484 3.41797 Q3.22266 4.98047 1.75781 10.15625 Q1.75781 17.28516 7.03125 21.67969 Q11.91406 25.87891 19.14062 25.87891 Q21.19141 23.82812 21.38672 21.97266 Q20.80078 19.43359 14.64844 18.06641 Q8.49609 16.69922 7.8125 13.67188 Q7.8125 8.49609 13.37891 8.10547 Q14.0625 8.00781 14.74609 8.00781 Q20.01953 8.00781 24.60938 10.64453 Q29.39453 13.47656 31.34766 18.16406 Q31.83594 19.33594 31.83594 20.50781 Q31.83594 24.51172 26.46484 28.80859 Q22.55859 30.46875 20.3125 31.73828 Q20.11719 32.51953 20.11719 33.10547 Q27.73438 33.10547 31.73828 28.71094 Q34.57031 25.58594 34.57031 21.19141 Q34.57031 19.23828 34.08203 17.1875 Q31.64062 11.13281 25.29297 6.83594 zM33.78906 51.95312 Q30.46875 48.82812 16.11328 38.76953 Q15.82031 38.86719 15.23438 39.45312 Q17.08984 43.55469 22.75391 49.41406 Q28.41797 55.17578 32.42188 56.93359 Q33.39844 56.54297 33.88672 56.25 Q34.76562 54.10156 33.78906 51.95312 z" />
<glyph unicode="" horiz-adv-x="43.06641" d="M25.97656 6.54297 Q19.72656 2.24609 13.28125 2.24609 Q10.83984 2.24609 8.39844 3.125 Q3.90625 4.58984 2.44141 9.86328 Q2.44141 16.99219 7.71484 21.38672 Q12.59766 25.58594 19.82422 25.58594 Q21.875 23.53516 22.07031 21.67969 Q21.48438 19.14062 15.33203 17.77344 Q9.17969 16.30859 8.49609 13.37891 Q8.49609 8.20312 14.0625 7.71484 Q14.74609 7.71484 15.42969 7.71484 Q20.70312 7.71484 25.29297 10.35156 Q30.07812 13.18359 32.03125 17.87109 Q32.51953 19.04297 32.51953 20.21484 Q32.51953 24.12109 27.14844 28.51562 Q23.24219 30.17578 20.99609 31.44531 Q20.80078 32.22656 20.80078 32.8125 Q28.41797 32.8125 32.42188 28.32031 Q35.25391 25.29297 35.25391 20.80078 Q35.25391 18.94531 34.76562 16.89453 Q32.32422 10.83984 25.97656 6.54297 zM5.76172 37.01172 Q9.57031 39.55078 13.57422 41.60156 Q17.57812 43.55469 21.875 44.82422 Q22.65625 45.01953 23.33984 45.01953 Q24.21875 45.01953 24.90234 44.82422 Q26.66016 44.23828 27.92969 42.38281 Q30.17578 38.96484 34.17969 37.89062 Q33.20312 35.83984 31.54297 35.54688 Q30.66406 35.44922 27.83203 35.83984 Q27.05078 36.71875 25.29297 39.25781 Q23.73047 41.69922 22.94922 42.38281 Q20.60547 43.16406 13.47656 39.35547 Q7.03125 35.9375 5.85938 36.32812 Q5.66406 36.32812 5.56641 36.42578 Q5.66406 36.62109 5.76172 37.01172 z" />
<glyph unicode="" horiz-adv-x="41.99219" d="M25.39062 6.64062 Q19.04297 2.44141 12.59766 2.44141 Q10.15625 2.44141 7.71484 3.22266 Q3.22266 4.78516 1.75781 9.96094 Q1.75781 17.08984 7.03125 21.48438 Q11.91406 25.68359 19.14062 25.68359 Q21.19141 23.63281 21.38672 21.77734 Q20.80078 19.23828 14.64844 17.87109 Q8.49609 16.50391 7.8125 13.47656 Q7.8125 8.30078 13.37891 7.91016 Q14.0625 7.8125 14.74609 7.8125 Q20.01953 7.8125 24.60938 10.44922 Q29.39453 13.28125 31.34766 17.96875 Q31.83594 19.14062 31.83594 20.3125 Q31.83594 24.31641 26.46484 28.61328 Q22.55859 30.27344 20.3125 31.54297 Q20.11719 32.32422 20.11719 32.91016 Q27.73438 32.91016 31.73828 28.51562 Q34.57031 25.39062 34.57031 20.99609 Q34.57031 19.04297 34.08203 16.99219 Q31.64062 10.9375 25.39062 6.64062 zM30.17578 40.03906 Q26.85547 38.67188 24.21875 39.0625 Q22.07031 39.45312 20.41016 41.01562 Q15.72266 41.11328 13.76953 37.89062 Q12.01172 35.05859 8.59375 35.64453 Q8.20312 35.74219 7.61719 35.83984 Q7.42188 36.52344 7.51953 37.30469 Q7.91016 39.64844 11.81641 42.08984 Q16.89453 45.3125 20.11719 45.11719 Q22.46094 42.28516 25.09766 41.69922 Q27.53906 41.11328 31.54297 42.08984 Q33.39844 42.87109 34.27734 43.26172 Q35.25391 43.65234 38.86719 45.21484 Q39.74609 45.60547 40.33203 45.60547 Q40.42969 45.60547 40.52734 45.50781 Q40.625 45.3125 40.625 45.11719 Q40.625 45.11719 40.625 45.01953 Q40.625 44.92188 40.52734 44.82422 Q36.23047 42.48047 30.17578 40.03906 z" />
<glyph unicode="" horiz-adv-x="56.05469" d="M49.21875 4.10156 Q46.77734 4.10156 45.41016 6.44531 Q42.67578 11.03516 38.67188 16.11328 Q37.10938 16.11328 34.57031 12.69531 Q31.44531 8.49609 29.78516 6.73828 Q25 1.75781 17.87109 1.75781 Q17.77344 1.75781 17.57812 1.75781 Q10.54688 1.85547 5.56641 7.51953 Q2.73438 8.39844 1.17188 17.87109 Q1.17188 20.01953 2.63672 20.89844 Q3.22266 21.19141 6.15234 21.97266 Q8.78906 18.94531 8.78906 15.42969 Q8.78906 14.74609 8.69141 14.0625 Q8.10547 9.57031 10.15625 8.39844 Q15.82031 4.98047 19.62891 4.98047 Q22.55859 4.98047 24.31641 6.93359 Q27.73438 10.83984 35.54688 19.62891 Q36.81641 19.92188 40.23438 19.92188 Q42.67578 16.69922 48.33984 10.9375 Q52.24609 10.25391 52.73438 10.05859 Q54.78516 9.17969 55.07812 6.54297 Q51.66016 4.10156 49.21875 4.10156 zM44.72656 45.21484 Q41.40625 42.1875 26.95312 32.03125 Q26.75781 32.12891 26.07422 32.71484 Q27.92969 36.81641 33.69141 42.67578 Q39.25781 48.4375 43.35938 50.19531 Q44.23828 49.80469 44.72656 49.51172 Q45.60547 47.36328 44.72656 45.21484 z" />
<glyph unicode="" horiz-adv-x="37.30469" d="M24.80469 18.06641 Q22.55859 15.52734 13.47656 14.45312 Q7.42188 13.67188 0.87891 13.67188 Q0.29297 13.96484 -0.68359 14.64844 Q-0.97656 14.94141 -0.97656 16.30859 Q3.51562 18.84766 11.03516 19.04297 Q15.33203 19.14062 24.12109 19.33594 Q24.70703 18.45703 24.80469 18.16406 Q24.80469 18.06641 24.80469 18.06641 z" />
<glyph unicode="" horiz-adv-x="56.05469" d="M10.25391 1.75781 Q14.94141 4.88281 19.82422 7.42188 Q24.80469 9.86328 29.98047 11.42578 Q32.03125 11.91406 33.78906 11.42578 Q35.9375 10.74219 37.5 8.39844 Q40.23438 4.19922 45.11719 2.83203 Q44.04297 0.39062 41.89453 0 Q41.60156 0 41.21094 0 Q40.03906 0 37.30469 0.39062 Q36.42578 1.36719 34.27734 4.58984 Q32.32422 7.51953 31.34766 8.39844 Q28.51562 9.27734 19.72656 4.6875 Q11.81641 0.48828 10.35156 0.87891 Q10.15625 0.97656 9.96094 1.07422 Q10.05859 1.26953 10.25391 1.75781 zM10.54688 17.67578 Q15.23438 20.89844 20.21484 23.33984 Q25.09766 25.78125 30.37109 27.44141 Q31.34766 27.63672 32.22656 27.63672 Q33.20312 27.63672 34.08203 27.34375 Q36.32812 26.66016 37.89062 24.31641 Q40.625 20.21484 45.50781 18.75 Q44.33594 16.30859 42.1875 16.01562 Q41.30859 15.82031 37.69531 16.30859 Q36.81641 17.28516 34.66797 20.50781 Q32.71484 23.53516 31.73828 24.31641 Q28.80859 25.29297 20.11719 20.60547 Q12.10938 16.40625 10.64453 16.79688 Q10.54688 16.89453 10.35156 16.99219 Q10.44922 17.1875 10.54688 17.67578 z" />
</font>
</svg>
